<?xml version="1.0" encoding="UTF-8"?>
<!DOCTYPE svg PUBLIC "-//W3C//DTD SVG 1.1//EN" "http://www.w3.org/Graphics/SVG/1.1/DTD/svg11.dtd">
<!-- Creator: CorelDRAW -->
<svg xmlns="http://www.w3.org/2000/svg" xml:space="preserve" width="426.24mm" height="197.376mm" version="1.1" style="shape-rendering:geometricPrecision; text-rendering:geometricPrecision; image-rendering:optimizeQuality; fill-rule:evenodd; clip-rule:evenodd"
viewBox="0 0 6496952.99 3008492.26"
 xmlns:xlink="http://www.w3.org/1999/xlink"
 xmlns:xodm="http://www.corel.com/coreldraw/odm/2003">
 <defs>
  <style type="text/css">
   <![CDATA[
    .fil0 {fill:white}
   ]]>
  </style>
 </defs>
 <g id="Camada_x0020_1">
  <metadata id="CorelCorpID_0Corel-Layer"/>
  <path class="fil0" d="M3035020.25 2102751.44c-69610.81,42351.19 -10270.37,154672.92 73241.57,115548.56 76148.31,-35674.99 8929.04,-165539.27 -73241.57,-115548.56zm3172841.09 -622564.78c5642.76,-16179.88 1155.38,-24852.84 -11483.67,-23296.58 -62.49,68.59 -13782.24,-4068.21 -5161.1,16458.81 5068.12,12068.98 6304.28,5441.56 16644.77,6837.77zm-1296098.83 -1271038.7l-30901.05 -12655.82 8863.49 30113.01c13564.27,6214.35 3705.44,356.67 17230.08,6436.89l4807.47 -23894.09zm817278.13 -170115.06l-937.41 -21557.42c-8000.77,-5325.72 -16903.89,-10454.81 -27079.76,-15870.45l-11468.43 19799.96c17490.73,6115.28 26677.36,10316.1 39485.61,17627.91zm-1683181.24 786157.58c-37778.45,2515.01 -16778.91,-3662.76 -29171.03,27562.95l27889.14 5700.68 1281.89 -33263.63zm2383843.84 -744147.83l-1891.59 -26268.86c-27014.22,-11104.14 -23590.76,-18559.23 -37113.88,228.64 2188.82,2008.96 1377.92,2199.49 8060.22,7081.65l30945.25 18958.58zm-2644346.72 1049417.82l-1681.24 -34486.08 -21587.9 1342.86 -3575.88 28203.13 26845.03 4940.08zm348294.91 -355277.48c-487.76,-27392.23 9837.49,-37978.13 -23863.6,-33513.61l-5485.76 21859.22 29349.37 11654.39zm-3846436.12 1178899.52l73026.65 4502.62c-43851.05,-23032.89 -24540.37,-20255.71 -80250.06,-10631.62 1202.63,1062.4 2768.03,2418.98 3650.57,3143 852.05,699.63 2545.49,2150.71 3572.83,2986zm4123478.6 -1413569.47l-3636.85 -33184.37 -23522.17 -2059.26 -3976.76 23642.59 31135.78 11601.04zm-1075604.38 1040074.19l-28954.59 3074.41 -1752.88 26610.3 24235.52 3624.66 6471.95 -33309.36zm-107745.94 84716.1l-25308.59 1507.48 -6618.28 24279.72 27186.46 9147 4740.41 -34934.21zm643369.22 -628649.57l-1152.33 -32600.58 -24980.88 -317.04 -1085.26 29164.93 27218.47 3752.69zm902756.35 -763601.78l33900.77 13576.46c650.85,-27239.81 2786.32,-32845.99 -23567.9,-36627.64l-10332.87 23051.18zm-1345610.93 1246640.08c5668.67,-11213.88 7269.13,-22514.65 1957.13,-33545.62l-18201.03 1201.11 -9718.6 27412.05c27620.87,4307.52 14574.85,21060.51 22092.43,4313.62 530.44,-1182.82 2572.93,464.9 3870.06,618.84zm188710.87 -229217.72l-28111.68 1137.09 -2577.5 24413.86 27599.53 7923.03 3089.65 -33473.98zm-90026.57 96920.74l-27869.32 4613.89 -1576.07 27701.66 26669.74 457.27 2775.65 -32772.82zm1717126.21 -1292077.87c-7910.84,-9880.17 437.46,-2684.2 -9031.16,-8932.08l-21409.57 -9771.94 -7162.43 24284.3 34403.77 13533.78 3199.39 -19114.05zm-2127598.18 1651277.24l-28259.53 -2643.04 -7621.23 24333.07 30065.76 9509.77 5815 -31199.8zm3165904.25 -1683568.4c1903.78,-29733.48 -7208.16,-26444.15 -31414.72,-40180.66 -4174.91,5795.19 -6093.94,9081.46 -12434.8,13454.52 14207.5,10465.48 26442.63,20272.48 43849.52,26726.14zm-462718.57 -48102.17l39046.62 22598.48 3899.02 -21013.26c-13570.37,-11689.45 -30391.95,-28988.12 -42945.65,-1585.22zm-5817372.24 1912444.69l45786.84 -9451.85c-6453.66,-6119.85 -2348.86,-3027.15 -10945.61,-8948.85 -1391.64,-958.75 -5702.21,-3322.86 -7058.79,-4152.05 -5214.45,-3197.87 -6499.39,-3998.1 -13617.62,-8131.86l-16048.79 4519.39 1883.97 26165.22zm5591192.35 -493230.94c9207.97,19171.97 17141.68,29898.1 34263.54,32295.74 1243.79,-4153.57 3165.86,-36199.33 -23106.05,-42970.03l-11157.48 10674.3zm361342.46 -1413464.29c16833.78,5641.24 28866.18,11471.48 39138.08,22343.93l4490.43 -25657.64 -34513.51 -17359.64 -9114.99 20673.36zm179347.42 30347.75l5244.93 -21636.68c-10084.42,-7854.44 -22467.39,-14800.43 -34262.01,-23670.02l-9625.62 18740.61c13795.96,10968.48 23833.12,14800.43 38642.7,26566.09zm-1004495.23 69191.65l-30218.19 -9703.35c-2144.61,9008.3 -3638.38,15126.62 -5382.11,21469.01 11460.81,8925.99 22025.36,17855.02 36511.8,17039.55l-911.5 -28805.21zm610719.86 1295438.84c10229.22,-13425.56 550.25,-33131.02 -8153.19,-42745.97l-18661.35 -960.28c-8825.39,20088.05 9351.25,38993.27 26814.54,43706.25zm443452.09 -198944.66c7371.26,28664.98 4655.05,38763.11 38029.95,38891.15 2220.83,-30835.51 -4679.44,-40715.67 -38029.95,-38891.15zm-772068.97 363519.08c8366.59,-24970.21 -126.51,-44672.62 -25256.77,-47058.06 -13204.55,26941.06 3409.74,43953.17 25256.77,47058.06zm-86025.43 -1532594.83c-3100.32,15992.39 -3156.71,9307.05 -7639.52,27919.62l40163.9 14029.17 3077.45 -28069 -35601.83 -13879.79zm-2842267.08 2858012.55c-3514.91,-27035.56 -15271.43,-30474.26 -44346.43,-28187.89 -1858.06,32394.81 22811.87,38339.37 44346.43,28187.89zm4000354.54 -2078250.7l-4548.35 -63169.35 -21348.6 7237.12c-9581.41,24493.12 6403.36,44443.98 25896.95,55932.23zm-3804760.17 2125502.34c-4309.04,-30835.51 -15330.87,-39330.13 -42838.95,-27428.82 -6319.53,14457.48 -3527.11,11131.57 2121.75,27758.05l40717.2 -329.24zm-1670528.47 -530390.54l43806.85 -3182.63c-10200.26,-20821.21 -28815.88,-19338.12 -54772.27,-22743.28 -16064.03,3200.92 -6485.67,-845.96 -11748.89,10320.67 9383.26,16118.91 -2857.96,10803.86 22714.32,15605.24zm4516613.79 -899331.37c-1792.51,-10649.91 -2854.91,-20735.85 -7468.81,-31115.97 -6921.6,-15571.7 -8610.47,-12036.97 -15080.9,-17024.31 -33201.14,8464.14 -15599.14,46725.78 22549.7,48140.28zm787366.31 -340926.7c-2088.22,31164.74 9799.38,51075.98 39144.18,43314.51 3050.02,-26948.68 -16964.86,-41643.94 -39144.18,-43314.51zm-833163.82 -1111780.85l5237.31 -34880.86c-30097.77,-6090.89 -11578.18,-11573.6 -42227.73,-5449.18l-1879.4 16762.14c14954.38,15521.4 20677.93,13988.01 38869.81,23567.9zm-5449594.42 2238668.5c28076.62,-202.72 32214.95,1138.61 55238.69,-9605.8 -7418.51,-12840.25 3871.59,-11401.36 -20124.63,-16085.37 -9854.25,-1923.6 -26549.33,-725.54 -37004.13,-551.78l1890.07 26242.95zm6065982.95 -1024761.61c12625.33,-28974.4 -8500.72,-37188.57 -37831.8,-37180.95 1291.04,20022.5 8038.88,30308.12 13980.39,42384.72l23851.41 -5203.78zm-119157.97 48091.5c2815.28,-29949.92 -2179.67,-45907.26 -36482.84,-49725.49 -4568.17,30686.13 10122.52,44309.85 36482.84,49725.49zm-404021.36 -1293556.39c16839.88,15783.57 21424.81,12081.18 29849.32,12683.26 8419.94,-35403.67 -6865.21,-38301.27 -34242.2,-45442.36 -3207.01,22423.19 -9762.8,19493.59 4392.88,32759.11zm915058.54 1156197.39c234.73,-30163.31 -14247.13,-43012.71 -44117.79,-32938.97 -4304.47,27989.74 18179.69,37507.13 44117.79,32938.97zm-6094190.66 1129643.49c17109.67,20350.22 45262.5,20889.8 68528.6,4586.46 -7362.11,-12907.32 -5622.95,-13747.18 -27034.04,-15318.68 -18155.3,-1332.19 -32885.62,849.01 -41494.56,10732.22zm4683502.02 -587054.41c-3693.25,5529.97 -5773.85,-7811.76 -6505.48,14614.48 -281.99,8756.8 8060.22,27236.76 17002.97,32076.24 17717.84,9585.99 17890.08,-336.86 18944.86,-800.23 4857.77,-20639.82 -7788.9,-48885.63 -29442.35,-45890.49zm-3890346.62 706755.01c8069.36,12027.83 52133.8,37961.36 70824.12,13971.24 -11413.56,-23261.53 -54705.21,-22600 -70824.12,-13971.24zm-988225.42 -503592.76c-4461.47,-6526.82 -20530.08,-17673.64 -28844.84,-19365.55 -9002.2,-1835.19 -36659.65,4844.06 -48207.35,6475 9518.92,6979.52 21901.9,16873.41 30157.22,23849.89l46894.97 -10959.33zm5007421.17 -227899.24c6267.7,-29398.14 -3429.55,-54700.64 -32888.67,-49204.2 -1897.69,28895.14 5316.57,54583.27 32888.67,49204.2zm612315.74 -388647.81c-955.7,30616.02 13053.65,55622.8 40534.29,39788.93 5642.76,-28495.79 -11079.75,-40142.56 -40534.29,-39788.93zm-5617346.9 985559.52c7712.69,11974.48 10986.77,14933.04 33477.03,14619.05 21894.28,-307.9 23868.18,-2569.88 34182.75,-13556.65 -14189.21,-22741.76 -62800.48,-14550.46 -67659.78,-1062.4zm3593844.08 536676.53l27360.23 -887.11c4363.92,-28975.93 614.27,-44027.86 -23599.91,-50367.2 -14001.73,19821.3 -14730.32,24738.52 -3760.32,51254.31zm-926312.05 137764.45c-1384.02,-31282.11 -16025.93,-47055.01 -44640.61,-27759.58 -9608.85,32346.04 18832.07,36809.03 44640.61,27759.58zm631214.88 -71229.56c-5077.27,29199.99 -1885.49,43110.26 26878.56,45567.35 22193.03,-30648.03 16963.34,-51873.16 -26878.56,-45567.35zm554677.89 -217365.18c18717.75,-4670.29 23491.69,-6165.58 20546.84,-29762.44 -2713.16,-21726.61 -8615.04,-23956.58 -24630.3,-26953.25 -7878.83,9430.51 -16429.85,17769.67 -6183.87,42215.53 11191.02,26701.75 -734.69,2176.62 10267.32,14500.16zm1256747.36 -1049628.17c8474.81,-35095.78 -3228.35,-50452.56 -35938.68,-46745.59 -705.73,11078.22 -1368.77,21452.25 4112.42,32970.98 8858.92,18614.1 12271.71,18045.55 31826.27,13774.62zm-1970809.61 1323454.49c3104.89,21007.17 15013.83,22772.24 35967.65,20092.62 5019.34,-14169.4 5132.14,-26808.45 -105.17,-42078.35 -19121.67,-3546.92 -40095.31,-6685.35 -35862.47,21985.73zm-292377.92 22346.98c-231.69,-36002.7 -47730.26,-37792.17 -45289.94,-8490.05 1890.07,22679.26 45486.56,38709.76 45289.94,8490.05zm1760648.02 -955928.16c8141,-26808.45 6599.99,-55150.29 -29573.43,-49797.13 -8958,25820.74 2309.23,49492.28 16890.18,52383.78 25099.77,4973.62 4626.09,129.56 12683.26,-2586.65zm-4793645.6 64522.88c7407.84,-2595.79 12299.15,-3306.09 21511.69,-6974.95 13823.39,-5510.15 9724.69,-3517.96 17923.61,-10991.34 4357.82,-27191.03 -13355.45,-26540.18 -43194.1,-34237.63l3758.79 52203.92zm1380401.86 391760.32c13267.04,19953.91 54636.62,37749.49 72351.41,16660.01 -10895.31,-12672.59 -10880.07,-17571.51 -33004.51,-22481.11 -10750.51,-2383.92 -37187.04,-5060.5 -39346.9,5821.1zm-614321.65 -119792.06c1457.18,2236.07 -1147.76,13952.95 33047.19,18324.49 21187.03,2710.11 25095.19,146.33 41646.99,-6761.56 -10977.62,-28104.06 -53682.44,-29558.19 -74694.18,-11562.93zm4226996.28 -505127.68c5898.83,-28857.04 -888.64,-49681.29 -27695.56,-55526.78 -9421.37,12056.79 -13748.7,18719.27 -6798.14,38130.55 6479.57,18094.33 15576.28,18057.75 34493.7,17396.23zm-1831802.9 1119671.87c567.02,5243.41 4978.19,14045.93 6859.11,18530.27 44651.28,10468.53 49394.73,-12713.74 27044.71,-43666.61l-30643.45 4944.66 -3260.36 20191.69zm1329601.77 -671436.69c16984.68,-19377.75 7805.67,-35272.59 763.65,-55438.37 -51021.1,5933.89 -27177.32,53485.81 -13099.37,57268.99 22974.97,6174.72 6313.43,-67.07 12335.73,-1830.62zm-3926404.19 27416.62c5819.57,13129.86 7136.52,16551.79 29523.13,19597.24 17352.02,2364.11 32053.38,-996.86 45581.07,-4828.81 -6821,-19208.55 -5001.05,-22436.91 -32458.83,-24250.76 -13768.52,-909.98 -36655.08,1737.64 -42645.37,9482.34zm3612682.25 262226.8c4565.12,-31245.53 4892.83,-57945.76 -27921.15,-60416.56 -5261.7,10570.65 -8584.56,20911.14 -4426.41,37936.97 5555.88,22744.81 8659.24,22409.47 32347.56,22479.59zm76713.8 -148127.8c-2461.66,13065.84 -4350.2,17830.64 1294.09,34138.55 6968.86,20132.25 10105.75,18537.89 22650.3,22254 21571.14,-25279.63 11765.66,-78061.24 -23944.39,-56392.55zm-626649.76 415794.64c-1156.9,53671.77 61709.12,49248.41 39677.66,-13280.76 -23575.52,-1342.86 -24759.86,-1117.27 -39677.66,13280.76zm-2046866.46 -329412.54c11314.48,22458.25 44041.58,35929.54 73842.12,24259.91 -378.01,-26192.65 -58927.37,-45020.15 -73842.12,-24259.91zm-156206.31 -474682.38c25459.49,13032.31 29513.99,10075.27 48721.02,32832.27 18028.79,-13721.27 15562.56,-12869.21 42131.7,-21927.81 -43163.61,-33563.91 -66553.18,-17824.54 -90852.71,-10904.46zm-510607.35 -51377.78c7163.96,6630.47 16791.1,10436.52 23243.24,13824.92 28783.87,15106.81 4966,17492.25 68519.45,-5173.29 -30957.45,-18604.95 -56541.93,-29594.77 -91762.69,-8651.62zm679591.41 65609.67c3214.64,2190.34 5219.02,4017.91 11279.42,6941.42l46917.83 23945.91 36126.17 -19498.16c-68063.7,-31352.23 -14419.37,-27131.59 -94323.42,-11389.17zm2323630 697714.7c40330.04,-14876.65 26462.44,-48646.33 4013.34,-62576.42 -35911.25,10712.4 -27198.66,38435.4 -4013.34,62576.42zm2565846.5 -1765566.77l-3612.46 -50164.48c-61562.79,-40604.4 -65501.45,26809.97 3612.46,50164.48zm-5694984.39 1013989.76c31593.06,-15050.41 30515.42,-4345.63 52232.88,-24674.5 -10668.2,-2975.33 -41800.94,-15455.86 -44267.17,-15727.18 -7144.14,-789.56 -43721.49,7459.66 -55397.22,9601.23l47431.5 30800.45zm1208469.9 620912.49c-7752.32,30396.52 50608.03,46295.94 63785.14,29288.4 13186.26,-17018.21 -31605.25,-52796.85 -63785.14,-29288.4zm-141989.66 -546882.89c-21726.61,-12328.11 21459.87,9363.45 -7602.94,-3720.69 -39901.73,-17961.72 -35569.82,-22543.61 -79623.59,-1416.03 26698.7,17135.58 29105.49,9040.31 50092.84,35274.11 14106.9,-10681.92 20456.91,-17925.14 44076.64,-24939.72 -1166.05,-884.06 -2623.23,-2191.87 -3453.94,-2710.11 -810.9,-507.57 -2470.8,-1909.88 -3489,-2487.57zm403713.46 12206.17c20156.64,-2641.52 52757.22,19446.34 61942.33,28550.66 5308.95,-24241.62 10046.31,-27053.85 34002.89,-35252.77 -18818.35,-7904.74 -41787.22,-13988.01 -58454.85,-21449.2l-37490.37 28151.31zm-475279.88 477426.02c12277.81,38173.23 62210.6,43437.98 79148.03,32675.27 -9488.43,-47263.84 -72160.88,-37045.29 -79148.03,-32675.27zm697024.22 -459389.61c10159.1,-26756.62 3734.4,-23990.12 25843.6,-42646.89 -19150.63,763.65 -38772.26,-11314.48 -52691.68,-19450.91 -16864.26,13445.38 -16865.79,20566.66 -35088.16,32202.76 34175.13,4938.56 42710.91,10084.42 61936.23,29895.05zm-381935.03 -20844.07c20874.56,16012.21 29799.02,6220.45 57558.6,36697.76 13896.56,-27392.23 3749.65,-14009.35 32667.65,-35572.87l-55592.32 -23199.03c-14547.41,18819.87 -10595.04,9846.63 -34633.93,22074.14zm2164844.67 -1351918.27c2277.22,21650.4 3754.22,37967.46 -4961.42,50507.43 27491.31,1275.79 43681.86,1743.74 53464.47,18909.8l-1367.25 -61419.51c-25238.47,2574.45 -27530.94,1129.47 -47135.8,-7997.72zm-2269465.9 1380250.96c13015.54,-18987.54 17338.3,-20901.99 38947.55,-26154.55l-59069.13 -25480.83c-9070.79,6942.94 -23927.62,11768.71 -40073.97,18768.05l60195.54 32867.33zm785832.92 -61887.46c378.01,-29884.38 2681.15,-34990.6 19325.92,-48766.74 -25287.25,-5458.33 -33993.75,-3149.09 -54336.34,-16140.25l-22967.35 37193.14c37609.26,10410.6 32943.54,8197.4 57977.77,27713.85zm-147260.51 34274.21c4164.24,-26387.76 7798.05,-31570.19 22889.61,-45102.45l-55677.68 -18269.62c-10101.18,14189.21 -16743.85,22468.92 -25342.12,33711.76 49237.74,9293.33 54241.84,28614.68 55042.07,26599.63 388.68,-978.57 2034.87,2065.35 3088.12,3060.69zm419468.07 -131583.63c-1696.49,-33656.89 708.77,-36347.18 13971.24,-56901.65l-53376.07 -11820.53c-4998,25454.92 -6179.3,29250.29 -19330.49,45157.33 29957.54,-320.09 46855.34,7045.07 58735.32,23564.85zm-2072851.82 361081.81l22805.78 7848.35c21444.62,7255.41 43768.74,7977.91 65524.31,184.43 -7662.39,-30782.16 -57438.18,-31743.96 -84665.8,-28235.14l-10361.83 778.89c890.16,13155.77 -2806.14,1690.39 1134.04,11474.53 11841.87,29396.62 -11244.37,-5062.02 5563.5,7948.95zm-947665.22 -119671.64c13239.61,32855.13 73080,18970.77 89322.37,12036.97 -10657.53,-46942.22 -76922.63,-23231.04 -89322.37,-12036.97zm5928195.64 -2074057.5c-22028.41,-9421.37 -40214.2,-15888.75 -53580.31,-32707.28 -868.82,1082.22 -2034.87,2568.36 -2543.97,3298.47l-19060.7 24555.61c4485.86,4366.97 3112.51,3882.26 9401.55,8174.53 17781.86,12139.1 35731.39,13882.84 64432.95,44671.09 -4385.26,-24374.23 -8098.32,-26660.6 1350.48,-47992.43zm-1912228.24 935067.33c-7352.97,-29925.53 -9938.09,-34772.64 -4149,-64306.44l-45413.4 -5453.75 -4196.25 54226.59c25474.73,-1313.9 42435.02,573.12 53758.65,15533.6zm-1130559.56 954378c3710.02,-27256.58 2505.86,-42515.81 19848.74,-54331.77l-53031.59 -14826.35c-1743.74,2900.64 -301.8,-1373.35 -4834.91,9988.39 -1731.54,4341.05 -2086.69,7633.43 -4115.47,12107.09 -5385.16,11867.78 -4914.17,9630.19 -12788.43,16963.34 22075.66,9529.59 49487.71,16131.1 54921.65,30099.3zm1677700.05 -1429016.18c-6688.39,-29398.14 -7327.05,-28552.19 -3021.06,-57116.57l-45867.63 -9165.29 -8016.01 45559.73c26742.91,9520.44 32434.44,7982.48 56904.7,20722.13zm1025769.14 616809.22c2844.24,-35338.13 -34807.69,-81242.34 -50147.71,-63725.7 -19071.37,21781.48 18258.95,76910.43 50147.71,63725.7zm-2323242.84 611201.52c-9608.85,-26863.32 -262.17,-38346.99 4949.23,-61443.9l-49414.55 -5706.78c-1112.7,22734.14 -2068.4,31269.92 -11337.35,49146.28 27224.57,1103.55 40793.41,8607.42 55802.67,18004.4zm1393559.16 -1346639.8l-48670.72 -14766.9 -6630.47 48246.98c31469.59,3086.6 30731.86,8790.33 53173.34,19511.88l2127.85 -52991.95zm-4297343.3 1766345.66c16853.59,26116.44 78007.89,28511.03 94840.14,4107.84 -8671.44,-12200.07 -18149.2,-16326.2 -40535.81,-18530.27 -21967.44,-2159.86 -42931.93,-230.16 -54304.33,14422.42zm4012298.53 -1498575.17c-1240.74,-29233.52 -10983.72,-31312.6 -2409.83,-67603.38l-46536.77 -4709.92 -6183.87 47597.65c33710.24,4502.62 36658.13,6430.8 55130.47,24715.66zm-4195729.41 1484446.93c20104.81,23456.63 68844.12,20450.82 90456.41,4191.68 -8227.88,-27265.72 -44212.29,-27652.88 -69961.39,-20793.77 -25121.11,6691.44 -14137.39,4648.95 -20495.02,16602.09zm5417065.47 -2079383.21c11155.96,8520.54 25983.83,10439.56 69651.97,43145.32 -6609.13,-23119.77 -8555.6,-25383.28 3831.96,-48109.79 -28059.85,-5964.38 -35673.47,-16047.27 -59160.58,-29090.25l-14323.34 34054.72zm-1718328.84 997913.53c26543.23,176.81 37209.91,7531.3 53380.64,16984.68 -6805.76,-25683.55 -11488.25,-38089.4 -7337.72,-67329.02l-42572.21 -4792.23 -3470.71 55136.57zm223969.74 -174116.21c-9755.18,-21718.99 -3315.24,-34579.06 -3123.18,-55069.5l-44960.7 -6420.13 -4905.03 55770.66c16646.3,-67.07 51385.4,6566.45 52988.91,5718.97zm1888436.28 -835137.72c25775.01,5287.61 61792.95,30268.49 71982.54,46050.54 -3911.22,-34074.53 -7453.57,-29018.61 9768.9,-46574.88 -19725.27,-9624.09 -44980.52,-18167.49 -59892.22,-33958.69 -8156.24,7977.91 -2132.42,419.17 -8189.78,9668.3 -847.48,1294.09 -2670.48,5368.4 -3446.32,6747.84 -4859.3,8642.48 -4979.71,8596.75 -10223.12,18066.89zm-4855092.55 2206077.06c6444.51,22398.8 17024.31,27250.48 40377.29,32714.9 18830.54,4408.12 37828.75,3318.28 54508.58,-817 -8546.45,-37920.21 -56182.2,-36024.04 -94885.87,-31897.91zm3729674.26 -1979622.8l-52120.09 -18713.17 -6843.87 48925.27c22974.97,2784.8 45341.76,8467.19 53836.39,22965.82l5127.57 -53177.91zm105002.3 5110.8c-4028.58,-22837.79 -4312.09,-35676.51 824.62,-54606.13 -29815.79,-3735.93 -32157.03,-15100.71 -52940.13,-17574.56 50.3,25883.23 124.99,26747.48 -8677.54,46879.73 28826.55,5488.81 43651.37,15625.05 60793.05,25300.97zm-204468.53 107485.29c-9320.77,-25500.64 -7237.12,-37516.28 -4203.87,-61238.13 -24994.59,-4987.33 -34713.19,-3165.86 -49830.67,-14707.45l-6438.42 47495.52c16624.96,8482.43 65385.6,21558.94 60472.96,28450.06zm958441.65 -336326.52c37607.73,12593.32 42747.49,27819.02 67905.18,42837.42l-1437.36 -37339.47 11998.87 -8183.68 -64387.22 -30016.99c-4885.21,14358.4 -7791.95,22185.41 -14079.47,32702.71zm-2056251.25 1306908.79c-8688.21,-39141.13 -3379.25,-34790.93 -1980,-65621.86l-43631.56 -6833.2 -3992 60261.09c27145.31,-365.82 31545.81,-164.62 49603.55,12193.97zm799133.5 -841571.57l-47263.84 -10764.23 -7211.21 52505.72c33801.69,-3364.01 37156.56,6013.15 53917.17,18656.78l557.87 -60398.27zm1011543.35 652426.29c13811.2,-32550.28 -22747.86,-61693.88 -39526.76,-66173.64 -1126.42,893.21 -22910.95,2521.1 -5295.23,44297.65 8294.95,19673.45 23025.27,33937.35 44821.99,21875.99zm-1639894.16 -70453.72l-41938.12 -3356.39 -5915.6 56724.83c25430.53,-2044.01 46593.17,582.26 51888.4,14491.01l-4034.68 -67859.46zm-461023.61 548646.44c-4551.4,-31772.92 -2411.36,-42610.31 5549.78,-65989.21l-49563.92 1094.41c-658.47,23090.81 -4100.22,33964.79 -13408.8,49678.24 26316.12,1897.69 38287.55,2563.78 57422.94,15216.55zm376153.56 -452577.76l-44395.2 -2743.64 -7199.02 58401.51c32899.34,-5653.43 26857.22,-5037.63 49367.3,6859.11l2226.92 -62516.97zm437900.79 -451833.92l-49502.95 -3828.91 -2478.42 53956.8c31530.56,-4450.8 33492.27,-1367.25 50245.26,11698.59l1736.12 -61826.49zm1023418.75 473232.82c-949.61,2339.72 -10645.34,-2127.85 -663.05,29253.34 7324,23025.27 24679.08,43258.12 51440.27,36738.91 3583.5,-34906.77 -19546.94,-77132.97 -50777.22,-65992.25zm1130779.06 -1110238.31c2463.18,-4286.18 -24.39,3050.02 5167.2,-12603.99 7532.83,-22729.56 -1938.84,-14416.32 12605.52,-20507.21l-66419.04 -36156.65 -22555.8 23726.42 71202.13 45541.44zm-216718.9 -51287.85c31407.1,8979.34 61747.23,30090.15 78521.56,47475.71 -3181.1,-27626.97 -7642.57,-26497.5 6801.19,-44497.33 -26253.62,-12254.94 -44175.71,-25351.27 -65912.99,-34414.44 -10546.26,21569.61 -7924.56,15622 -19409.76,31436.06zm138188.19 818153.04c-8311.72,17600.47 25595.15,64932.9 67502.78,54462.85 -3103.37,-45716.73 -56532.78,-77699.99 -67502.78,-54462.85zm-901594.87 351672.64c19778.62,-29497.22 -13875.22,-80099.16 -44761.02,-63986.35 -7170.06,20719.08 -3604.84,27346.51 6098.51,44212.29 9570.74,16634.1 14250.18,24517.51 38662.51,19774.05zm-1788930.42 232974.99c-5424.79,-28411.96 -8993.05,-44280.89 -498.43,-67577.47l-45539.91 -949.61 -9541.78 57729.31c29817.31,251.5 33759.01,-2550.06 55580.13,10797.76zm-1418040.08 1132356.65c-5098.6,34013.56 46958.99,49384.06 62382.84,47469.61 13526.16,-1678.2 18886.94,-11751.94 8640.95,-27944.01 -12902.75,-20386.8 -42901.44,-30038.33 -71023.79,-19525.6zm1321206.22 -1100708.72l-43258.12 -4028.58 -10128.62 61276.23c24797.97,-9279.61 41614.98,-443.56 50995.19,13577.99l2391.54 -70825.64zm2565518.78 -512620.88c26037.18,8291.9 24703.46,-4636.76 24791.87,-4766.32 7569.41,-30356.89 -23517.6,-62806.58 -57425.99,-58909.08 -8788.81,33870.28 15375.07,58180.49 32634.12,63675.4zm-2897693.26 833258.33c-2298.56,-29125.3 673.72,-40470.27 9503.68,-60273.28l-46184.67 -10206.35 -21167.21 48451.22c19290.86,9171.39 32446.64,6859.11 57848.2,22028.41zm-787509.59 823794.28c-11386.12,37392.82 30378.23,57883.26 64439.05,43497.42 2953.99,-23159.4 -99.08,-32820.08 -19114.05,-42404.54l-33268.2 -8125.76c-12239.7,2571.4 -5880.54,2205.58 -12056.79,7032.87zm2720691.65 -2393492.32c-7880.35,-36257.25 -4024.01,-30006.32 -2879.3,-59021.87l-51370.16 -17541.03 -10584.37 41054.06 64833.83 35508.85zm-4534351.44 1932145.57c13286.86,30138.93 78219.76,27192.56 100370.11,16980.11 -9697.26,-46660.23 -92550.73,-31666.22 -100370.11,-16980.11zm4612962.94 -830310.43c16567.04,-43556.87 -24215.7,-79378.19 -44800.65,-64911.56 -15013.83,10550.83 -4447.75,77142.12 44800.65,64911.56zm980050.89 -451664.73c-13571.89,27669.65 11761.09,71258.53 61274.71,57755.23 3379.25,-31382.71 -35114.07,-72674.55 -61274.71,-57755.23zm-720517.43 -747825.83c-475.56,-26906 -4827.29,-29509.41 5066.6,-51859.44 -21933.91,-9913.7 -42805.42,-16859.69 -50274.22,-33887.05 -5494.91,5924.75 -6217.4,5377.54 -10441.09,13510.92 -492.33,948.08 -3514.91,12015.64 -3731.36,12645.15 -3286.28,9579.89 -2566.83,8246.17 -8105.94,17252.95 8990.01,6112.23 27878.47,13213.69 37580.3,20120.05 18280.29,13014.02 7729.45,12846.35 29905.72,22217.42zm247839.44 932090.47c13248.75,11584.27 14875.12,12131.48 32059.48,7366.68 1266.65,-350.58 3479.85,-745.36 4251.12,-2769.56 15475.68,-40503.8 -27875.42,-80109.82 -48216.49,-65342.92 -12113.19,22017.74 4892.83,40330.04 11905.89,60745.8zm-362205.18 -915499.05c190.53,-1260.55 -77.74,-2745.17 -82.31,-4051.45 0,-76.21 -4098.7,-12183.3 -4609.32,-18054.7 -1114.22,-12850.92 2957.04,-17993.73 4523.96,-25249.14l-41640.89 -17315.44c-8621.14,-4706.87 -1451.08,-1425.17 -13096.33,-6185.39l-10893.79 41372.62c33620.31,22912.47 31853.7,4516.34 58488.39,43267.26l7310.29 -13783.76zm-3966459.87 2141670.03c7671.53,27447.11 65987.68,43602.6 99650.67,32038.14 -9596.66,-41767.4 -89125.74,-51268.03 -99650.67,-32038.14zm-594742.71 -103450.61c12703.07,29367.66 79006.27,33394.72 101856.25,14536.74 -6028.4,-13971.24 1066.97,-9802.43 -16467.96,-18089.76 -20086.52,-9493.01 -66182.78,-20540.75 -85388.29,3553.02zm5080751.15 -1151540.82c6618.28,-42352.71 -15019.93,-75197.18 -61405.8,-68556.04 -202.72,42928.88 22531.41,69001.12 61405.8,68556.04zm-636229.65 -844958.44c-5007.15,-32001.56 -6336.29,-34676.61 9215.59,-52130.76l-61495.73 -27488.26 -12655.82 51845.72c29288.4,3679.53 47477.23,18950.96 64935.95,27773.3zm-2643429.12 2468159.06c-967.9,23020.7 2152.24,28238.19 18543.98,37950.69 16481.68,9768.9 28469.88,10910.56 50233.07,6074.12 11814.43,-65301.77 -58622.52,-58992.91 -68777.05,-44024.81zm2982750.79 -2549498.95c19653.63,-18854.93 8372.69,11599.52 15466.53,-29073.48 627.99,-3591.12 2332.1,-13382.88 4985.81,-21296.77 -20121.58,-12555.22 -45239.64,-18269.62 -59495.91,-27084.34l-17736.13 38110.74 34708.62 17781.86c18289.43,9771.94 11378.5,6441.47 22071.09,21561.99zm-613849.14 1296507.33c-7442.9,20046.89 1844.34,77215.28 45347.86,73583 20699.27,-39705.1 -12120.81,-94923.98 -45347.86,-73583zm-2003032.18 1314382.17c14317.25,10803.86 31282.11,24224.85 54741.79,8365.06 20543.79,-37566.58 -14419.37,-59095.04 -47524.48,-57887.83 -7586.17,13965.15 -10448.71,27224.57 -7217.31,49522.77zm1812240.72 -1159614.75c-733.16,1304.76 -2219.3,1573.02 -2315.33,3847.2 -73.16,1739.17 -10438.04,14337.06 4302.95,48509.15 9575.32,22203.7 17248.37,27346.51 45767.03,25349.74 4600.18,-37212.95 -14684.59,-76204.71 -33379.47,-81051.81 -21787.58,-5653.43 -12757.94,2478.42 -14375.17,3345.72zm1162443.75 -596494.06c12105.57,40365.1 81344.46,51969.19 60892.12,4958.37 -14303.53,-32874.95 -79958.92,-68530.12 -60892.12,-4958.37zm-825182.87 444176.11c10534.07,-32030.52 -2498.24,-85770.88 -47727.21,-75570.62 -7964.19,26596.58 -5662.58,78420.96 47727.21,75570.62zm-3428010.63 963235.4c-5301.33,-54404.93 -90047.91,-53059.02 -96989.33,-36409.68 -6939.89,16643.25 23974.87,26736.81 38159.51,32144.84 19144.54,7296.57 42617.93,4981.24 58829.82,4264.84zm1098405.58 306812.54c-3162.81,27686.41 6700.59,43547.72 27672.7,48158.57 37938.5,8342.2 41775.02,-11466.91 34982.98,-43235.25 -18010.5,-15475.68 -33522.75,-25717.09 -62655.68,-4923.32zm1426571.29 -483329.43c23877.32,-6674.68 28719.85,-19482.92 25054.04,-47559.54 -4097.17,-31362.9 -12614.66,-41598.21 -42399.97,-35487.51 -13155.77,32582.29 -8916.84,67443.34 17345.93,83047.05zm-1084283.44 487015.06c274.36,60732.08 80727.14,58999.01 64275.95,6921.6 -7843.77,-24825.4 -35014.99,-48557.92 -64275.95,-6921.6zm1591723.4 -956783.27c26462.44,-32405.48 3551.49,-77457.64 -28168.08,-87494.8 -21429.38,13425.56 -20476.73,23445.96 -9858.83,53051.4 8060.22,22465.87 15300.39,33388.62 38026.9,34443.4zm-291954.18 273364.47c23330.12,-26979.16 11442.52,-80103.73 -27852.56,-83117.16 -14312.67,14116.05 -17368.79,23625.82 -11428.8,49490.76 6307.33,27468.45 13052.12,37072.72 39281.36,33626.4zm490686.97 -448843.35c2511.96,-3613.99 4429.46,-2374.78 5769.27,-10459.38 1015.15,-6125.95 929.79,-8903.12 157,-15045.84 -3482.9,-27687.94 -22032.98,-52069.79 -49126.47,-51487.52 -14902.56,37382.15 -5563.5,97821.57 43200.2,76992.74zm-1199543.91 925117.04c-1274.27,20219.13 1691.91,27630.02 8660.77,47394.92 7074.03,20046.89 9410.7,22365.27 34228.48,22385.08 26611.82,-29392.05 18832.07,-99793.94 -42889.25,-69780.01zm294835.01 -96675.34c6898.74,-27098.05 6013.15,-38255.54 -611.22,-68206.98 -18024.22,-13134.43 -44942.41,-33156.93 -46210.58,14990.96 -1004.48,38249.44 9223.22,59736.75 46821.8,53216.02zm297772.23 -278400.58c54407.98,-9025.06 27902.86,-79855.28 -3335.05,-91531 -40480.94,19225.32 -16260.66,65501.45 3335.05,91531zm274004.65 -369046c-9573.79,18002.88 -10538.64,36069.77 1106.6,58421.32 12593.32,24176.07 19879.22,26828.26 44062.92,21504.07 3880.73,-22398.8 2315.33,-83999.7 -31083.96,-84411.25 -29152.74,-358.2 -3098.79,-304.85 -14085.56,4485.86zm-462224.71 558134.88c12017.16,-32676.8 11165.11,-86982.65 -35988.98,-83117.16 -11844.92,14350.78 -15454.34,32524.37 -8546.45,57055.6 6456.71,22927.72 18571.42,28026.32 44535.44,26061.57zm-2330729.94 89169.95c702.68,25653.07 11765.66,30193.8 33897.72,37423.3 122752.15,40092.26 35263.44,-80714.95 -33897.72,-37423.3zm2713311.25 -472443.26l28122.35 245.4c12064.41,-43178.86 8505.3,-86589.4 -45472.85,-86215.96 -6764.61,44082.73 -2543.97,54487.24 17350.5,85970.55zm-4070479.02 171037.23c14759.28,26406.05 58694.16,30050.52 83992.08,25442.72 19379.27,-3531.68 20191.69,-6025.35 29393.57,-17202.65 -18693.36,-35127.79 -100894.45,-30660.22 -113385.65,-8240.08zm2913222.28 623381.77c13352.4,-47835.43 -6261.6,-54610.7 -19706.98,-67800.01 -31972.6,1836.72 -51353.39,10244.46 -37545.24,46068.83 9785.66,25389.37 33780.35,30785.21 57252.22,21731.18zm-3094418.61 -637674.63c4537.68,8177.58 -3633.8,15493.97 48105.22,21295.25 25000.69,2803.09 44626.89,1780.32 63827.82,-12950 -11741.27,-41968.6 -92715.34,-36958.41 -111933.04,-8345.25zm3383141.39 486132.52c-17025.83,-15210.46 -9721.64,-16062.51 -37708.33,-16916.09 -17025.83,24166.93 -26343.55,54235.74 -216.44,74976.16 41139.41,32658.51 44065.97,-26652.97 37924.78,-58060.07zm-2636487.7 -384991.14c35056.15,2621.7 77375.33,22897.23 112349.16,4446.23 -8436.7,-34947.92 -81382.57,-41101.31 -116347.26,-29948.4 -11346.49,-2123.28 -1800.14,-1745.26 -6635.05,8055.64 7141.09,15740.89 1993.71,7330.1 10633.14,17446.53zm2454125.32 425811.99c-8326.96,18925.04 -20223.7,20109.38 -15448.24,47173.91 8255.32,46780.65 72697.41,40087.68 60971.39,-14782.14 -5511.68,-25797.87 -18833.59,-30330.98 -45523.15,-32391.76zm-3377491.01 -547033.79c18047.08,37075.77 93802.13,28562.86 115650.68,8075.46 -13696.88,-38258.59 -89610.45,-34322.98 -115650.68,-8075.46zm3770060.7 408484.35c17691.93,15914.66 15693.64,20490.45 46291.37,16781.95 14564.18,-37240.39 6615.23,-53083.41 -10639.24,-83175.08 -48576.21,1990.67 -40451.98,20017.93 -35652.13,66393.13zm-2658517.64 -278920.35c1144.71,26085.96 22842.36,27636.11 48099.12,33600.49 16248.47,3838.05 38590.87,8476.33 54702.16,3394.5 13289.91,-4191.68 11572.08,-6920.08 14283.71,-8983.91 -18539.41,-32632.59 -76174.22,-48725.59 -117085,-28011.08zm-573205.1 -75377.04c20830.35,33871.81 89342.19,31568.67 114304.77,19972.2 -411.55,-20719.08 1603.51,-19417.38 -13901.13,-27232.19 -22161.02,-11177.3 -76081.24,-19316.78 -100403.64,7259.99zm1372394.99 322611.35c5182.44,47272.98 68420.38,56633.38 100455.47,42177.43 -4584.93,-48984.71 -81760.58,-60928.71 -100455.47,-42177.43zm-601333.55 -213111c-9668.3,32432.92 73740,49416.07 109372.31,37822.65 3296.95,-30869.04 -13099.37,-31719.57 -36949.26,-40374.24 -28123.87,-10207.88 -49929.74,-15818.63 -72423.05,2551.59zm4195357.49 -1392518.1c-1284.94,47818.66 24276.67,92126.98 69882.13,80234.81 17464.82,-39330.13 -29599.34,-93889.01 -69882.13,-80234.81zm-4777880.31 1300436.84c4411.17,18101.95 3490.52,24756.81 46939.17,32878 23683.74,4426.41 53359.3,2207.11 74962.44,-4310.57 -2861.01,-11207.78 2946.37,-28334.22 -49896.21,-38571.06 -27550.76,-5336.39 -50193.44,274.36 -72005.41,10003.63zm1470890.28 391583.51c7741.65,-49748.36 -69383.7,-70532.98 -89023.62,-47276.03 -27608.68,32690.52 48553.35,65431.33 89023.62,47276.03zm-2253825.61 -578681.72c39055.77,-5252.55 78312.74,6889.59 91835.85,-29233.52 -16742.32,-28386.04 -61753.32,-30475.79 -96123.56,-30335.55l4287.71 59569.08zm5237024.52 -975214.45c-21340.98,43444.07 20031.65,89683.62 59640.72,88447.45 6125.95,-17423.66 9988.39,-36426.44 -4519.39,-60628.43 -11771.76,-19635.34 -28439.39,-42899.92 -55121.33,-27819.02zm806260.87 -220563.05c17028.88,44232.11 96603.7,74642.35 79462.02,20848.64 -21179.41,-66472.39 -100292.37,-74962.44 -79462.02,-20848.64zm-521120.07 195890.07c5833.29,-42610.31 -33473.98,-74924.34 -66594.33,-74139.35 -28049.18,51694.82 25154.64,96201.3 51635.38,86973.51 21103.19,-7351.44 10075.27,-5769.27 14958.96,-12834.16zm-184305.79 -26070.71c-1341.34,43169.71 19048.51,70449.15 44320.52,89320.85 22136.63,-3472.23 22334.78,-3162.81 34463.21,-22671.64 -6816.43,-35063.77 -39324.04,-85098.68 -78783.73,-66649.2zm893767.87 -205358.69c-17345.93,-13084.13 -33789.5,-22778.34 -57508.3,-9396.98 -13219.79,37918.68 52017.96,101943.13 85662.66,59710.83 571.59,-27500.46 -11085.85,-37438.54 -28154.36,-50313.85zm-4676889.83 1546303.9c-14545.88,19088.14 18155.3,29949.92 36837.99,37214.48 16879.51,6563.41 57883.26,18216.27 70347.03,4508.72 31989.36,-35193.33 -84504.23,-71491.74 -107185.02,-41723.2zm795847.22 255125.34c756.03,26300.87 8695.83,31896.38 27398.33,40669.95 12841.78,6023.82 30587.06,12261.04 45082.64,9996.01 58967,-9209.5 9279.61,-77132.97 -62734.94,-65326.16l-9746.03 14660.2zm-2095855.75 -503972.3c13437.76,48161.62 132607.92,37979.65 127330.98,4011.82 -3161.29,-20359.36 -72232.52,-36344.13 -127330.98,-4011.82zm5598092.61 -1224933.29c-8322.39,-8749.18 -36719.1,-38252.49 -56378.83,-15623.53 -20616.96,23732.52 24471.78,92380.01 80602.16,74788.68 4415.74,-29657.26 -2290.94,-36097.21 -24223.33,-59165.15zm540741.7 -45690.81c-1045.63,-19975.25 -17118.81,-29599.34 -28527.8,-39206.67 -17079.18,-14384.31 -27434.91,-30722.71 -56131.9,-17946.48 -1463.28,2693.34 -3742.03,3546.92 -5151.95,11061.46 -998.38,5325.72 -824.62,1499.86 -481.66,8502.25 899.31,18400.7 13222.84,31335.46 25355.84,40238.58 18265.05,13401.18 67315.3,42762.74 64937.47,-2649.14zm-1299982.61 432043.11c19537.79,-45846.29 -29663.36,-110387.46 -58459.43,-92666.57 -24445.87,15044.31 1955.61,108058.41 58459.43,92666.57zm581213.49 -369748.68l2071.45 35745.11c12855.5,31777.49 38423.21,54205.26 79013.89,34679.66 1504.43,-31826.27 -14286.76,-46640.42 -30036.8,-63900.99 -17915.99,-19636.87 -58720.07,-27844.94 -51048.54,-6523.78zm-3142904.89 1726437.83c-6517.68,71621.3 82411.44,69385.23 92264.17,49144.76 15614.38,-32068.62 -45215.25,-77767.06 -92264.17,-49144.76zm2459737.6 -1288267.26c17893.13,-41069.3 -4955.33,-73831.45 -35809.12,-96836.91l-21031.55 2458.61c-10015.82,17577.61 -13553.6,40618.12 -554.83,63568.7 17694.98,31245.53 32719.48,34364.14 57395.5,30809.6zm-4909576.74 762609.5c14199.88,11468.43 36060.62,19418.9 61959.1,20435.57 13126.81,516.72 26404.52,-734.69 39288.98,-3121.66 23392.61,-4333.43 21734.23,-3226.83 31083.96,-21016.31 -24770.53,-34685.75 -118499.5,-41334.52 -132332.04,3702.39zm5055659 -983501.78c-38194.57,21801.3 17178.26,115007.45 54039.11,94294.46 35789.31,-20110.91 -25901.52,-110353.92 -54039.11,-94294.46zm-3392774.63 1285124.26c9994.48,24230.95 26174.36,30783.68 52583.46,37557.43 22432.34,5755.55 68597.19,14795.86 67208.6,-12588.75 -1406.88,-27727.57 -95680,-70208.32 -119792.06,-24968.68zm2995289.24 -1010683.67c-15233.32,34470.84 6359.16,74221.66 25325.36,92876.91l34879.33 -7.62c24473.3,-55212.78 -24296.49,-111913.23 -60204.69,-92869.29zm1250776.89 -473144.41c26640.78,-11777.85 4772.42,-42707.86 -9896.93,-59562.98 -17405.37,-20001.16 -22766.15,-31266.87 -62143.53,-27044.71 -17556.27,48330.81 37459.88,101892.83 72040.46,86607.69zm-5024436.34 1271279.53l1990.67 18.29c17603.52,29027.75 104112.14,56944.33 138605.83,24982.4 4319.71,-41602.78 -100603.32,-51560.69 -140596.5,-25000.69zm-538790.66 -64326.25c9171.39,38301.27 102417.17,45768.55 133459.98,17653.82 -11094.99,-48132.66 -105776.61,-44565.92 -133459.98,-17653.82zm4453003.93 -711824.65c13335.63,-8406.22 8980.86,-7090.79 21124.53,-17731.56 1094.41,-50515.05 -18979.92,-90839 -68089.62,-80792.69 -12646.67,39599.92 3155.19,91913.59 46965.08,98524.25zm-3723150.49 806824.84c20967.54,29401.19 92466.89,44352.53 124206.28,31268.39 20719.08,-8543.4 4411.17,1352.01 12719.84,-11094.99 -13178.64,-23494.74 -28735.1,-31516.85 -56694.35,-37264.78 -32910.01,-6763.08 -60869.26,-8499.2 -80231.76,17091.38zm3304427.77 -580122.13c-15516.83,21757.09 -15730.22,117373.08 53336.43,97291.13 12811.29,-25092.15 7531.3,-44665 -5258.65,-68827.35 -13809.67,-26084.43 -21795.2,-38686.9 -48077.78,-28463.78zm-1656994.69 1049771.45c7167.01,-52219.16 -58340.54,-86333.32 -87610.64,-55702.07 -27130.06,28392.14 23534.37,85491.94 87610.64,55702.07zm1775856.95 -1036969.3c74000.64,-3130.8 22798.16,-92212.34 -292.66,-102415.65 -54936.89,-24276.67 -37793.69,77328.08 292.66,102415.65zm92311.42 -84725.24c77244.24,1568.45 30507.79,-101871.49 -20417.28,-102752.51 -16253.04,18556.18 -20234.37,25145.5 -11623.9,55441.42 6598.46,23214.27 15676.88,35708.52 32041.19,47311.09zm-3885735.77 589131.95c7686.78,53395.88 82106.59,49931.27 131544,36603.26 629.51,-32797.21 -15882.65,-37779.97 -44823.52,-43857.15 -35117.12,-7372.78 -57284.23,-1088.31 -86720.48,7253.89zm3412391.68 -131800.07c69594.05,-6014.68 32923.73,-97477.09 2310.76,-108549.22 -40804.08,-14759.28 -48512.19,52991.95 -2310.76,108549.22zm-82597.4 98179.77c38154.94,-28933.25 25060.14,-112315.63 -23293.54,-105965.62 -28832.65,3787.75 -25142.45,34464.74 -19260.38,63734.84 5900.36,29384.42 13227.41,42538.67 42553.91,42230.77zm162402.37 -303975.91c-10201.78,20921.81 -20426.43,34466.26 -11386.12,67630.82 16092.99,59037.12 86529.95,59825.15 60943.95,-26534.08 -8904.65,-30052.04 -21289.15,-41358.91 -49557.83,-41096.73zm-282509.95 398217.03l22613.72 -1816.9c31029.09,-41691.19 20191.69,-110869.12 -40959.55,-101147.48 -19740.52,40421.49 -18847.31,80907.01 18345.83,102964.38zm-374293.98 179751.34c-4552.92,38100.07 2143.09,61753.32 23729.47,85208.43 80655.51,-4531.58 39927.64,-93230.54 22372.89,-100402.12 -23740.14,-1463.28 -36007.28,2810.71 -46102.36,15193.69zm278263.4 -86647.32c59753.51,-23026.79 21386.7,-107374.02 -13349.35,-106346.68 -35511.9,1051.73 -46378.25,92344.95 13349.35,106346.68zm-803841.89 288962.08c-76239.76,2211.68 -62841.64,72729.42 -16050.32,83585.11 31286.68,7258.46 49676.72,-7023.73 51618.61,-32504.56 2053.16,-26982.21 -20745,-41265.93 -35568.29,-51080.55zm413244.57 -144919.26c-15900.94,14821.77 -27125.49,25906.09 -20479.78,55310.33 5792.14,25619.54 22051.27,43735.21 50911.36,37702.24 41180.57,-8610.47 39270.69,-98342.86 -30431.58,-93012.57zm-540604.52 238739.69c18777.19,-61567.37 -46003.28,-90627.13 -78177.08,-67641.49 -20799.87,14859.88 -3880.73,53822.67 9576.84,63878.12 19905.14,14869.02 41718.63,12675.63 68600.24,3763.36zm1427376.09 -857181.38c66286.43,-9163.77 24488.54,-106102.8 -8939.71,-110710.6 -44797.61,-6171.67 -36780.07,81387.14 8939.71,110710.6zm-3795927.16 308816.92c20982.78,43998.9 111033.74,42791.7 145592.98,17844.35 -7244.74,-24714.13 -29024.7,-32297.26 -57616.52,-35917.35 -29797.5,-3772.51 -71488.69,-2946.37 -87976.46,18072.99zm1453760.8 327255.73c-981.61,-55115.23 -106991.44,-75341.98 -117635.25,-44495.8 -13739.56,39816.37 85190.14,74366.46 117635.25,44495.8zm1212175.34 181417.35c12180.25,-12584.18 28471.4,-27309.93 19104.91,-54766.18 -7170.06,-21017.84 -28442.44,-36505.7 -55679.2,-32096.06 -47475.71,7688.3 -38220.48,95853.77 36574.3,86862.24zm-1921773.08 -409162.64c6331.72,25035.75 36365.47,34992.13 60107.14,39851.43 33992.22,6959.71 54055.88,9252.18 74616.44,-11279.42 -8573.89,-49105.13 -114365.74,-62233.46 -134723.58,-28572zm2436453.21 157893.65c26310.02,-9369.54 38206.76,-23909.33 31669.27,-62667.87 -5395.83,-31983.26 -24218.75,-45032.34 -53321.19,-45931.64 -14870.55,23115.2 -23064.9,28055.28 -16467.96,63593.09 4898.93,26398.43 15541.22,38104.64 38119.88,45006.43zm-397265.9 210013.74c68295.39,-6999.34 51162.86,-67511.93 15068.7,-96547.3l-37194.66 2883.87c-32589.92,42000.61 -9656.1,71816.4 22125.96,93663.43zm-1260952.76 -156037.12c-8133.38,53138.28 73596.72,74340.55 114134.06,48513.72 -752.98,-60328.15 -91191.1,-75020.37 -114134.06,-48513.72zm3399702.33 -1607939.86c15650.96,-26273.44 11851.02,-46748.64 -9541.78,-69880.61 -11168.15,-12072.03 -39903.25,-39211.24 -63841.54,-26785.58 -32647.84,16951.15 13840.16,105625.71 73383.33,96666.19zm920172.39 -433192.39l-7179.2 -99707.06c-33147.79,-10354.21 -50830.57,-23866.65 -80233.29,739.26 -3659.72,43780.93 52391.4,88237.11 87412.49,98967.8zm-6336608.35 1604886.79c8921.41,63059.6 112835.4,38641.17 149005.77,26546.28 -10081.37,-60073.6 -111256.28,-43005.09 -149005.77,-26546.28zm6211202.49 -1385633.08c9579.89,48987.76 122800.92,95667.81 109898.17,37501.04 -9683.54,-43645.28 -122849.7,-103741.74 -109898.17,-37501.04zm-3897019.77 1897525.36c6558.83,-74244.52 -95922.36,-76084.29 -109009.54,-54354.63 -30158.74,50060.83 60349.49,75773.34 109009.54,54354.63zm-889820.07 -262626.15c621.89,11764.13 4101.75,18225.42 4402.02,18684.21 469.47,719.44 9893.88,9584.46 13875.22,12553.69 9108.9,6790.52 19283.24,11032.5 33012.13,14861.4 30257.82,8436.7 62847.73,3918.84 87468.89,932.84 1066.97,-33768.16 -20409.66,-45558.2 -51039.4,-54895.74 -25448.82,-7758.41 -68624.63,-14669.35 -87718.86,7863.59zm3589896.28 -1384072.25c-21557.42,67662.83 48455.8,126666.41 79009.32,92570.54 16007.64,-17864.17 490.81,-49031.96 -10998.96,-65499.92 -15663.16,-22453.68 -29462.16,-37030.05 -68010.36,-27070.62zm530341.77 -82528.8l4911.12 -4933.99c-1278.84,-36958.41 -20830.35,-66347.4 -46986.42,-76998.84 -22703.65,-4709.92 -33736.15,-11215.41 -54818,5982.67 -2246.74,28509.51 12259.51,53341.01 28596.39,66463.25 21302.87,17111.19 32531.99,25785.68 68296.91,9486.91zm464408.96 -159709.03c-13367.64,-11677.25 -56115.14,-36139.89 -67973.77,-12175.68 -12171.11,24596.77 39217.34,115970.77 107278,79736.38 -3219.21,-40645.56 -16097.57,-47291.27 -39304.22,-67560.7zm-703956.49 246629.19c27015.75,-32079.29 -11120.9,-81323.13 -30132.83,-93626.84 -12838.73,-8308.67 -24918.38,-10744.41 -43515.71,-8179.11 -10745.94,24910.76 -15272.95,43614.79 4555.97,70863.75 16504.54,22683.84 34757.39,38125.98 69092.57,30942.2zm599641.63 -152971.86c34608.02,-58185.06 -62698.36,-111259.33 -85334.94,-98751.36 -35953.93,19868.55 19679.55,106854.25 85334.94,98751.36zm276787.93 -39965.74c8400.12,-63887.27 -97649.33,-108087.37 -109354.02,-73547.94 -14885.79,43922.69 70522.31,107506.63 109354.02,73547.94zm-1367618.01 300340.59c-26727.66,56450.47 28783.87,123814.55 67856.41,105310.19 29843.22,-14132.81 9802.43,-118449.2 -67856.41,-105310.19zm-2436535.52 1495064.83c-3918.84,59613.28 61924.04,87269.21 111132.81,56639.48 5604.65,-67303.11 -65211.84,-87552.72 -111132.81,-56639.48zm2830362.71 -1570233.05c504.53,-24729.38 -2588.17,-40828.47 -15856.74,-59599.56 -44716.82,-63269.95 -115838.16,-24686.7 -59747.42,45529.24 19963.06,24988.5 43223.06,43880.01 75604.15,14070.32zm-4348141.87 1187566.38l778.89 20089.57c20149.01,11360.21 8150.15,8028.21 32199.71,16672.21 35592.68,12794.53 109825.01,35071.39 124131.59,-11550.74 -9493.01,-10259.7 -22747.86,-16949.62 -40787.31,-24865.03 -7421.56,-3257.31 -16254.57,-6630.47 -24305.64,-7863.59 -25805.49,-3950.85 -12882.93,5802.81 -31647.93,-7310.29 -29384.42,5915.6 -37685.47,1819.95 -60369.31,14827.87zm-528227.64 -40261.45c24590.67,33382.52 133001.18,48943.56 156299.29,5147.38 -17917.52,-44157.42 -142221.35,-51935.65 -156299.29,-5147.38zm2236385.18 414665.17c-50752.84,25721.66 18333.64,99970.76 70571.09,77303.69 54545.16,-23670.02 -6017.73,-110021.64 -70571.09,-77303.69zm-1907605.2 -380485.47c10738.32,-53347.1 -139102.74,-54161.05 -152115.23,-28428.72 -20411.19,40363.57 115575.99,60367.78 152115.23,28428.72zm4904738.78 -1378665.75c15844.54,56051.12 117074.33,90928.93 100037.82,21898.85 -13605.42,-55115.23 -123428.91,-104648.67 -100037.82,-21898.85zm216781.39 32701.19c35479.89,-53180.96 -60315.96,-113152.44 -87945.98,-101115.47 -31820.17,13864.55 14455.95,119049.75 87945.98,101115.47zm-1067899.31 306388.8c-22193.03,52420.36 28149.78,133629.17 73061.71,103374.4 20962.96,-14120.62 9864.92,-53741.88 -4216.07,-73182.12 -16131.1,-22269.24 -31818.65,-38525.33 -68845.64,-30192.28zm-3081055.54 1220750.76c-70188.5,23410.9 47780.56,90459.46 99644.57,68551.46 13736.51,-5801.28 20417.28,-15158.63 13721.27,-31541.23 -11511.11,-28157.41 -86351.61,-46021.58 -113365.84,-37010.23zm2886401.64 -1065327.91c-3164.34,56232.5 38534.48,137951.93 80051.9,85665.7 15593.04,-19638.39 5057.45,-49138.66 -6299.71,-68139.92 -12954.57,-21674.79 -30233.43,-34333.65 -61387.5,-35705.47l-12364.69 18179.69zm439034.83 -171595.1c83952.45,-13518.54 20260.28,-107116.42 -18354.98,-112795.77 -34798.55,-5118.42 -44239.73,28023.27 -31631.16,60226.03 11704.69,29898.1 32836.84,34226.96 49986.14,52569.74zm-302127 196376.3c41023.57,512.15 55546.59,-18138.53 39932.21,-67380.84 -21520.84,-67871.65 -109242.75,-65684.36 -78001.79,17812.34 10561.5,28226 19947.81,36237.44 38069.58,49568.5zm-254524.78 235921.35c22343.93,-19830.45 24688.22,-37763.21 11937.9,-70936.91 -9459.47,-24604.39 -27537.04,-53786.09 -58843.54,-46036.82 -42124.08,10427.37 -20978.21,125024.8 46905.64,116973.73zm-3185312.48 679289.61c16083.85,73613.49 228080.63,66826.02 140230.68,5377.54 -28218.38,-19737.47 -98211.78,-29326.5 -140230.68,-5377.54zm3046039.03 -713190.38c-48446.65,47326.33 -634.09,140880.01 43855.62,121578.48 25781.11,-11187.97 26601.15,-46324.9 14096.23,-74561.57 -12136.05,-27396.81 -26424.34,-48309.47 -57951.85,-47016.91zm-1542926.17 1041546.62c-4237.41,72026.75 68495.07,92562.92 108169.68,49376.44 4418.79,-70758.57 -69915.66,-96295.8 -108169.68,-49376.44zm1722293.41 -1208027.87c-48394.83,46526.1 11282.47,139185.05 55119.8,116248.19 38116.83,-19943.24 9756.7,-121540.37 -55119.8,-116248.19zm-349282.62 475229.58c44215.34,2319.9 60892.12,-25052.52 50277.27,-68478.3 -9756.7,-39907.82 -27387.66,-54379.02 -70784.48,-51418.93 -20575.8,53152 -14818.72,80024.47 20507.21,119897.23zm-184368.29 194176.81l26544.75 -958.75c11474.53,-16099.09 30891.9,-34068.43 17263.62,-76404.38 -10421.27,-32373.47 -29378.33,-49999.86 -67050.08,-42006.71 -26886.18,52745.03 -17489.2,86301.31 23241.71,119369.84zm-572994.76 331706.53c-50409.88,20395.94 -26377.09,131085.2 36510.28,104945.9 52863.92,-21972.01 25025.08,-129842.94 -36510.28,-104945.9zm452692.07 -356382.56c-36894.39,50899.16 -6863.68,143840.1 44230.59,120103.01 26232.28,-12189.4 26078.33,-50086.74 16879.51,-77142.12 -10657.53,-31347.65 -23563.33,-49502.95 -61110.09,-42960.89zm424621.55 -260958.63c53778.47,-37537.62 8497.67,-114952.58 -16693.55,-125181.79 -44962.22,-68.59 -53508.67,24698.89 -41604.31,69072.76 7993.15,29802.07 28238.19,55929.18 58297.86,56109.04zm-1246618.74 868210.82c14577.89,-21618.39 30446.82,-39607.55 4703.82,-68732.85 -17012.12,-19248.19 -41663.75,-32149.41 -73171.45,-19949.34 -37409.58,14484.91 -33647.74,110335.63 68467.63,88682.19zm612664.8 -416491.22c-18022.69,17981.54 -33588.3,34483.03 -21292.2,75649.88 7281.33,24369.65 29427.1,50864.11 58781.04,38914.01 38731.1,-15771.38 43099.59,-123209.42 -37488.84,-114563.89zm112347.64 26494.45c77469.83,10096.61 72979.4,-86150.41 29812.74,-120645.64 -83580.53,-7299.62 -56144.1,83859.47 -29812.74,120645.64zm340141.71 -288901.11c37234.29,-44730.54 21456.82,-135644.22 -50033.39,-123491.41 -12802.15,21097.1 -20034.7,46690.72 -8432.13,81751.44 10521.87,31794.26 21295.25,47602.22 58465.52,41739.97zm-897387.95 613317.17c-4019.44,-89939.69 -95472.71,-86449.17 -102834.82,-33312.41 -4533.11,32728.62 14297.43,60206.21 36339.56,66326.06 34138.55,9477.76 52534.68,-16545.7 66495.25,-33013.66zm-1341021.43 -135622.88c10485.29,55074.08 128538.19,76820.5 141157.42,39042.05 318.57,-33591.35 -28556.76,-49376.44 -57020.54,-57650.05 -37022.42,-10764.23 -65352.07,-12084.23 -84136.88,18608zm1376197.99 45285.36c-1541.01,97406.97 91236.82,91154.52 99574.45,39785.88 6275.32,-38670.13 -24958.01,-90346.66 -72755.34,-66839.73 -15045.84,7398.69 -14408.7,14737.94 -26819.12,27053.85zm-1192707.67 -31794.26c-1723.92,73706.47 120046.61,82476.98 133696.24,54679.3 24985.45,-50879.35 -78449.92,-93239.68 -133696.24,-54679.3zm4370918.68 -1787765.89l-4690.11 -65135.63c-23717.28,-11437.95 -23040.51,-22792.06 -52821.24,-36187.14 -28131.49,-12654.29 -47204.39,-13642.01 -65387.13,9316.19 1050.21,53784.56 67836.59,90299.41 122898.47,92006.57zm-1118700.93 28357.08c-28593.34,20069.75 1204.15,64230.22 17733.08,80283.59 15958.86,15495.49 45728.92,48250.02 74922.81,26078.33 41563.15,-31567.15 -50995.19,-135604.59 -92655.9,-106361.92zm-1766088.06 1617350.56c-62765.42,31208.95 -21533.03,136811.8 33801.69,112725.65 55125.9,-23991.64 27828.17,-143372.15 -33801.69,-112725.65zm1963127.41 -1537702.58c34569.91,-26922.77 26069.19,-41921.35 480.14,-77716.76 -63097.71,-88259.97 -129826.17,-24235.52 -74348.17,39084.73 14129.77,16126.53 41246.11,34499.8 73868.04,38632.03zm-205959.24 58183.54c4214.54,-56785.8 -49967.85,-117161.21 -102104.7,-99707.06 -38810.37,50036.44 55260.03,160193.74 102104.7,99707.06zm721901.45 -157849.45c17987.63,-66403.8 -100659.72,-131109.59 -122799.4,-95548.92 -20929.43,33614.21 66499.83,134319.65 122799.4,95548.92zm148943.27 -110402.7c-15227.22,63233.37 106371.07,135487.23 127861.42,95143.47 19947.81,-37450.74 -74528.03,-129586.87 -127861.42,-95143.47zm-575424.4 179005.99c20932.48,1451.08 34476.93,2682.67 53043.78,-6244.84 -2249.79,-43825.14 -3664.29,-50387.02 -27594.96,-78117.63 -11527.88,-13361.55 -32562.48,-36126.17 -53177.91,-31856.75 -42453.31,-1280.37 -50342.81,26264.29 -28082.72,61800.58 17637.06,28155.88 35754.25,29629.83 55811.81,54418.65zm-3366271.03 1737314.86c10866.35,65806.3 142192.39,80743.91 142428.64,27977.55 205.77,-46571.83 -109902.75,-91841.95 -142428.64,-27977.55zm-567518.14 -169926.05c-2233.02,62402.65 100025.63,84581.96 155465.52,54642.71 -426.79,-44093.4 -23083.19,-50358.06 -58035.69,-62100.85 -30963.54,-10404.51 -75503.55,-12043.07 -97429.84,7458.14zm4112613.77 -1676277.93c16592.95,52574.31 156131.62,107111.85 114672.12,15806.44 -31554.95,-69496.5 -142230.49,-103113.75 -114672.12,-15806.44zm-691532.36 304535.31c15844.54,-98621.8 -80333.89,-144681.48 -102953.71,-105279.71 -16219.51,28250.39 8689.73,68298.44 24951.92,83297.02 23371.27,21554.37 39532.86,39052.72 78001.79,21982.68zm-306777.48 17623.34c-1790.99,32024.42 6409.46,56941.28 24256.86,78472.78 19502.73,23525.22 33374.9,34992.13 74404.57,26453.3 17563.89,-63586.99 -10878.55,-135831.71 -86811.94,-122218.66l-11849.49 17292.58zm99306.19 -62181.64c-2286.37,62870.6 32503.03,120359.08 95983.33,103827.1 34608.02,-48599.08 -12357.07,-133537.71 -81018.28,-119432.34l-14965.05 15605.24zm1155823.95 -323175.32c-17408.42,63809.53 103583.22,132083.58 128300.4,95239.5 23862.08,-35565.24 -78558.14,-141172.67 -128300.4,-95239.5zm-1436106.98 681095.84c-1399.26,-107162.15 -91442.6,-145033.58 -101978.19,-80128.12 -10156.05,62552.03 49112.75,137520.57 101978.19,80128.12zm-2051972.69 1277064.04c5324.19,-88753.83 -123360.32,-88517.57 -135002.52,-49629.47 -15513.78,51815.24 82252.92,99606.46 135002.52,49629.47zm2631948.49 -1637574.26c1246.83,-788.04 17364.22,-1268.17 17336.78,-35005.85 -19.82,-25372.61 -17847.4,-50184.29 -37048.34,-66454.1 -60794.57,-51510.39 -127673.94,22964.3 -27145.31,96495.48 4866.92,3559.12 2682.67,2804.61 10092.04,5845.49 23197.51,9520.44 28404.33,4205.4 36764.83,-881.01zm-3339421.43 1445356.1c13725.84,75683.41 148187.25,78545.95 160943.67,39932.21 14027.64,-42457.89 -107726.12,-91075.25 -160943.67,-39932.21zm3807633.38 -1724883.1c-2905.21,66627.86 62515.45,124059.95 123117.97,101380.69 13876.74,-72322.45 -76174.22,-145906.97 -123117.97,-101380.69zm-1283901.81 824611.28l35239.06 -1295.61c36470.65,-47832.38 -521.29,-140962.32 -58668.25,-131835.13 -44296.13,6956.66 -43034.05,78392 23429.19,133130.74zm-1652106.43 1082681.46c-5148.9,-84799.93 -119999.36,-91942.55 -130742.25,-41634.79 -7064.88,33086.82 29232,60660.44 49336.81,68492.02 40909.25,15934.47 63506.21,-4970.57 81405.43,-26857.22zm1981137.9 -1335893.86c3409.74,-44834.19 -498.43,-69748 -27530.94,-93312.85 -19647.54,-17124.91 -66161.44,-39386.53 -75748.96,3461.56 -8861.97,39612.12 30809.6,148217.73 103279.9,89851.28zm-273829.37 39447.5c-16786.53,25185.13 -25479.31,54600.03 -5711.35,87051.24 12765.56,20958.39 39304.22,55871.26 72339.22,42316.13 36374.62,-14923.9 33685.85,-142866.1 -66627.86,-129367.38zm314831.6 -225070.24l-35479.89 1287.99c-17063.94,31469.59 -25563.14,45225.92 -5760.13,82454.12 11120.9,20903.52 33423.68,50617.18 61521.64,48749.98 35257.35,-2339.72 46004.81,-35799.98 32192.09,-73108.96 -13687.73,-36973.65 -31879.62,-40566.3 -52473.71,-59383.12zm-602194.75 707756.44c39641.08,-55528.3 -15996.97,-160483.34 -63004.73,-135676.23 -25364.99,13385.93 -29913.34,58326.82 -15298.86,90825.28 14640.39,32562.48 34237.63,52941.65 78303.59,44850.95zm48894.78 -91937.98c93533.86,9622.57 52860.87,-124050.8 5670.2,-135758.54 -40198.95,-9973.15 -55788.95,24165.4 -51722.26,62079.51 4062.12,37883.62 23766.05,56476.38 46052.06,73679.03zm-1412465.91 817012.91c-18010.5,23165.5 -46297.46,40137.98 -16355.17,74404.57 17784.91,20354.79 48207.35,39453.6 86039.14,26549.33 31207.42,-10640.77 44610.12,-46055.11 19812.16,-77555.19 -20376.13,-25880.18 -46081.02,-28946.97 -89496.14,-23398.71zm240413.31 67572.9c41601.26,-86476.6 -51963.09,-127481.88 -96664.67,-88019.14 -20325.83,17940.38 -17283.43,55481.05 3171.96,77523.18 26096.62,28123.87 56823.91,22892.66 93492.71,10495.96zm1231089.72 -1109357.3c-48571.64,69583.38 20045.37,155610.33 65624.91,132664.32 36760.25,-18508.93 32094.53,-149450.85 -65624.91,-132664.32zm-2220190.06 957019.52c-1239.21,44588.78 23380.42,56476.38 57811.62,67056.18 118225.13,36328.89 123749,-56198.97 42172.85,-78817.26 -37879.05,-10503.58 -74980.74,-11122.43 -99984.48,11761.09zm1861428.15 -579861.49c-51284.8,52514.87 6365.25,160506.21 57730.84,136602.97 32059.48,-14920.85 41201.91,-158195.45 -57730.84,-136602.97zm157145.24 37714.43c42744.45,-60171.16 -3551.49,-166423.33 -61763.99,-135072.63 -37827.23,20373.08 -31789.69,153596.8 61763.99,135072.63zm-767014.57 609041.66c18472.34,-21173.31 41392.44,-36661.18 28069,-78866.04 -8788.81,-27846.46 -41279.64,-53546.78 -78568.81,-39906.3 -48205.82,17634.01 -59422.75,131644.6 50499.81,118772.34zm2288035.8 -1835447.37l-1710.2 -24366.61 -6955.14 -7070.98c-15190.64,-20049.94 -43145.32,-74514.32 -90224.72,-76256.53 -100235.98,-3703.92 17618.77,173352.56 87785.93,116772.53 11742.8,-9468.62 -260.65,-725.54 11104.14,-9078.41zm-2093188.32 1572062.14c-60649.77,36491.99 -15614.38,145791.13 49784.94,121413.86 55692.92,-20758.71 31782.06,-170491.55 -49784.94,-121413.86zm124341.94 -97242.36c-64538.12,30346.22 -34018.13,153610.52 36307.55,135877.43 66495.25,-16769.76 22087.86,-163333.69 -36307.55,-135877.43zm-246557.55 175591.68c-62049.03,37626.03 -10375.55,151912.51 57537.26,116947.82 55822.48,-28739.67 16064.03,-161580.8 -57537.26,-116947.82zm513631.45 -238229.06c17408.42,-60204.69 10744.41,-137445.88 -64937.47,-130937.35 -25855.79,26578.29 -39165.51,49423.69 -20196.27,97731.64 18798.53,47868.96 35976.79,54708.26 85133.74,33205.71zm-172530.99 -27500.46c-44706.15,28683.27 -17045.65,167279.96 55689.87,131763.49 50193.44,-24509.88 15222.65,-177260.73 -55689.87,-131763.49zm-610325.08 394228.07c-65251.47,31198.28 -23502.36,135371.38 58928.9,109457.67 67281.77,-21153.49 21237.33,-147787.9 -58928.9,-109457.67zm3115398.34 -1932064.79c-1271.22,55455.14 101277.04,130190.47 154967.1,97503 7138.05,-46632.8 -28750.34,-70781.44 -55253.94,-88069.44 -30911.72,-20167.31 -68357.88,-39912.4 -99713.16,-9433.56zm-977086.23 257731.8c-470.99,-63346.16 -50301.66,-120374.32 -110279.24,-109049.17 -62142.01,63119.05 59302.34,175387.43 110279.24,109049.17zm989748.15 -159440.76c8765.94,-86836.32 -136479.51,-146528.87 -149167.34,-104372.78 -15404.04,51173.53 98661.43,141360.15 149167.34,104372.78zm-854090.2 -26412.14c-80794.21,7947.42 -35783.21,81160.03 269.79,111137.39 81286.54,67583.57 122346.7,-28212.28 43756.55,-91648.37 -16661.54,-13446.9 -29000.31,-6246.36 -44026.34,-19489.02zm-42139.32 164550.03c58842.01,-57496.1 -53283.09,-148216.21 -97309.42,-127439.2 -54523.82,48400.92 27924.2,140337.38 97309.42,127439.2zm-3088059.45 1677276.31c-19691.74,7671.53 -30414.82,9369.54 -30574.86,31696.71 -131.09,18246.76 14425.47,33422.15 24537.32,40305.65 22008.6,14977.25 65342.92,31292.78 102258.65,19425 81077.72,-26060.04 -13256.37,-123745.95 -96221.11,-91427.36zm2564398.46 -1423275.87c5936.94,-17382.51 30015.46,-40651.65 -2315.33,-92216.92 -12087.27,-19278.67 -48471.04,-51498.19 -81748.39,-38260.11 -52021.01,20700.79 -14201.4,151988.72 84063.72,130477.03zm-2422238.08 1440379.44c-3385.35,91623.98 131539.43,98897.69 148598.79,53139.81 23670.02,-63484.87 -96344.57,-108081.27 -148598.79,-53139.81zm3428464.86 -1936270.18c-25845.12,70511.64 100818.24,165970.63 142425.6,100618.56 -19.82,-40485.51 -28082.72,-64268.33 -49153.9,-80515.27 -17059.37,-13152.72 -65603.57,-40784.26 -93271.69,-20103.29zm-903925.44 256382.84c-49470.95,39247.82 49823.05,156979.1 99909.79,123617.92 50777.22,-33819.98 -37731.2,-172948.63 -99909.79,-123617.92zm104979.43 -55720.36c-41796.36,83481.46 51711.59,156313.01 99086.69,126164.93 36379.19,-23150.26 3792.33,-144676.91 -99086.69,-126164.93zm1075372.69 -94637.42c16827.68,-83159.84 -125533.9,-148162.86 -146385.59,-106095.18 -23026.79,46455.99 83329.03,142754.83 146385.59,106095.18zm-1268354.5 200988.67c-21191.6,8205.02 -25532.65,1089.84 -24200.46,40915.35 2060.78,61756.37 68716.08,109780.81 107937.99,83996.65 26681.94,-17541.03 14911.7,-68213.08 -3248.17,-93713.73 -11669.63,-16385.65 -36363.95,-32242.39 -55877.35,-35595.73 -26249.05,-4513.29 -16664.59,1323.05 -24612.01,4397.45zm767139.56 -187342.09c20770.91,14207.5 19734.42,20966.01 46820.28,31600.68 27701.66,10877.02 43412.07,12003.44 65124.96,-4668.77 9229.31,-65691.98 -40290.41,-110771.57 -83624.74,-118912.57 -13446.9,-181.39 -24598.29,-1880.92 -36987.37,4725.16 -13866.07,7397.17 -8768.99,7432.23 -17092.9,19952.39 -6.1,30702.9 18146.15,45863.05 25759.77,67303.11zm-1148048.77 454640.06c-67229.94,39525.24 14780.62,164513.45 72593.77,135688.43 59027.97,-29428.63 -11192.54,-171788.68 -72593.77,-135688.43zm-1864751.01 1328813.74c-39729.49,13795.96 -34316.89,61110.09 -7837.68,82670.56 19405.18,15798.82 64407.04,31576.29 99586.65,18620.2 62295.96,-22949.06 8194.35,-135991.75 -91748.97,-101290.75zm1952921.05 -1401480.67c-64466.48,33748.34 12198.54,158235.08 77613.11,131606.49 57592.13,-23442.91 -7066.41,-168537.46 -77613.11,-131606.49zm93190.91 -66137.06c-35037.86,21395.85 -18999.73,68953.86 -1704.11,92373.91 13766.99,18640.01 49082.26,55458.19 83521.09,36141.41 58913.65,-33045.66 -11317.53,-171564.62 -81816.98,-128515.32zm-326333.56 441854.68l33745.29 -1710.2c16780.43,-22612.2 35946.31,-39365.19 14551.98,-92518.72 -34684.23,-86183.95 -127792.83,-65870.31 -103453.66,23790.44 11849.49,43646.8 26575.24,48696.63 55156.38,70438.48zm58110.37 -226332.32c-72467.25,28059.85 1301.71,166264.81 64135.72,139567.63 55583.17,-23613.63 10745.94,-168563.38 -64135.72,-139567.63zm-353055.13 347631.86c-65743.8,29306.69 -8031.25,175564.24 59046.26,145519.82 60930.23,-27293.16 7705.07,-175276.16 -59046.26,-145519.82zm179443.45 -182048.38c-75732.19,28974.4 -7038.97,170115.06 56138,143792.85 61421.04,-25589.05 14516.92,-170825.36 -56138,-143792.85zm1514620.91 -803695.57c-53766.27,37726.63 60143.72,151057.4 121276.68,121596.77 18612.57,-8970.19 18123.29,-25900 10142.34,-49208.78 -14901.03,-43521.81 -91221.58,-100594.17 -131419.01,-72387.99zm-1618919.01 900992.79c-50550.11,43210.86 14385.84,173925.67 77152.79,131976.89 60319.01,-40314.8 -13843.21,-186090.69 -77152.79,-131976.89zm-1341643.32 967872.16c-84331.99,36950.78 7580.08,136340.8 82259.01,103465.85 81879.48,-36043.86 4086.5,-141296.13 -82259.01,-103465.85zm1147213.48 -542555.55c70258.62,-88441.36 -17036.5,-172390.76 -60163.53,-150812 -25063.19,26282.58 -40558.68,48199.72 -21911.04,98745.26 14140.44,38322.61 35490.56,59957.76 82074.58,52066.74zm-992397.29 503719.28c-35237.53,15545.79 -48344.53,45087.21 -21290.68,84964.55 16585.33,24445.87 57848.2,43965.37 96846.05,27433.39 70164.12,-29744.15 12072.03,-151065.03 -75555.38,-112397.94zm749775.34 -458202.23c-64279,26954.78 -43099.59,173267.2 38523.81,147464.75 33963.26,-10736.79 46885.82,-50451.04 36267.92,-94963.61 -8006.87,-33563.91 -40369.67,-66937.29 -74791.73,-52501.15zm-469385.62 348121.14c-79338.56,48778.94 -5078.79,161403.99 69197.74,117908.09 67809.16,-39706.62 7531.3,-165080.47 -69197.74,-117908.09zm247805.9 -157241.27c-71208.23,35810.65 -20377.65,172944.06 53635.19,134731.2 65931.28,-34039.47 28930.2,-176254.72 -53635.19,-134731.2zm311874.56 -285239.87c-63425.42,42870.96 -15394.89,178053.33 55471.9,145864.3 27091.96,-12305.24 36964.5,-59921.18 26960.87,-97490.81 -7936.75,-29812.74 -45550.58,-73302.54 -82432.78,-48373.49zm186037.34 -197501.2c-37155.03,18647.63 -39505.42,68258.81 -27578.19,98117.27 40205.05,100646 139415.21,46594.69 105753.75,-50097.41 -10018.87,-28780.82 -45349.38,-64495.44 -78175.56,-48019.86zm-379426.12 383629.99c-26015.84,27823.6 -47175.43,34505.89 -36623.07,91684.95 18761.95,101670.29 135903.34,68174.97 113919.14,-29498.74 -9191.21,-40836.09 -31390.33,-65748.37 -77296.07,-62186.21zm-230627.65 179682.75c-33374.9,16702.69 -53769.32,40250.78 -36199.33,90683.52 10569.13,30337.08 41595.16,61340.25 83205.57,44524.77 67682.64,-27351.08 33335.27,-175420.96 -47006.24,-135208.29z"/>
 </g>
</svg>
