<?xml version="1.0" encoding="UTF-8"?>
<!DOCTYPE svg PUBLIC "-//W3C//DTD SVG 1.1//EN" "http://www.w3.org/Graphics/SVG/1.1/DTD/svg11.dtd">
<!-- Creator: CorelDRAW -->
<svg xmlns="http://www.w3.org/2000/svg" xml:space="preserve" width="62.5658mm" height="10.1677mm" version="1.1" style="shape-rendering:geometricPrecision; text-rendering:geometricPrecision; image-rendering:optimizeQuality; fill-rule:evenodd; clip-rule:evenodd"
viewBox="0 0 6256.56 1016.77"
 xmlns:xlink="http://www.w3.org/1999/xlink"
 xmlns:xodm="http://www.corel.com/coreldraw/odm/2003">
 <defs>
  <style type="text/css">
   <![CDATA[
    .fil3 {fill:black}
    .fil2 {fill:#F7C04A}
    .fil0 {fill:black;fill-rule:nonzero}
    .fil1 {fill:#F7C04A;fill-rule:nonzero}
   ]]>
  </style>
 </defs>
 <g id="Camada_x0020_1">
  <metadata id="CorelCorpID_0Corel-Layer"/>
  <polygon class="fil0" points="5865.49,782.13 5865.49,608.95 6214.64,608.95 6214.64,396.64 5865.49,396.64 5865.49,234.64 6249.57,234.64 6249.57,19.54 5642.01,19.54 5642.01,997.22 6256.56,997.22 6256.56,782.13 "/>
  <polygon class="fil0" points="5544.26,19.54 4817.98,19.54 4817.98,234.64 5069.38,234.64 5069.38,997.22 5292.84,997.22 5292.84,234.64 5544.26,234.64 "/>
  <polygon class="fil0" points="4674.47,410.78 4541.45,19.54 4256.53,19.54 3924.11,997.22 4168.54,997.22 4403.44,252.82 "/>
  <path class="fil0" d="M3917.12 452.52l-490.23 0 0 195.53 261.18 0c-34.92,93.58 -120.11,150.84 -250.02,150.84 -189.93,0 -307.25,-121.51 -307.25,-287.71 0,-171.79 122.89,-293.3 287.71,-293.3 110.34,0 198.33,50.28 238.83,114.53l189.95 -108.96c-82.4,-131.27 -240.23,-223.45 -427.38,-223.45 -287.73,0 -512.59,226.26 -512.59,509.78 0,280.73 220.67,506.99 527.95,506.99 273.75,0 481.85,-181.56 481.85,-480.45l0 -83.8z"/>
  <g id="_1909932018144">
   <g>
    <path class="fil1" d="M3228.72 19.54l-640.66 0 0 215.1 251.4 0 0 762.58 223.46 0 0 -82.23c-126.51,-92.4 -203.63,-239.28 -203.63,-405.21 0,-234.37 153.64,-429.58 369.43,-490.24z"/>
    <path class="fil1" d="M2217.92 1016.77c212.3,0 363.14,-111.73 363.14,-300.28 0,-206.71 -166.21,-258.38 -314.25,-303.08 -152.24,-46.1 -175.98,-76.81 -175.98,-121.52 0,-39.11 34.91,-74.01 104.75,-74.01 89.38,0 135.47,43.28 168.99,113.13l188.57 -110.35c-71.25,-143.86 -196.95,-220.66 -357.56,-220.66 -169,0 -328.22,108.94 -328.22,297.49 0,187.15 142.46,256.99 287.71,297.49 146.65,40.5 202.52,64.25 202.52,124.3 0,37.71 -26.54,79.61 -132.68,79.61 -110.34,0 -170.4,-54.47 -205.31,-135.47l-192.74 111.73c54.47,143.86 185.75,241.62 391.06,241.62z"/>
    <polygon class="fil1" points="1358.97,782.13 1358.97,608.95 1708.12,608.95 1708.12,396.64 1358.97,396.64 1358.97,234.64 1743.04,234.64 1743.04,19.54 1135.5,19.54 1135.5,997.22 1750.04,997.22 1750.04,782.13 "/>
    <path class="fil1" d="M1009.8 452.52l-490.23 0 0 195.53 261.18 0c-34.92,93.58 -120.11,150.84 -250.02,150.84 -189.93,0 -307.25,-121.51 -307.25,-287.71 0,-171.79 122.89,-293.3 287.71,-293.3 110.34,0 198.33,50.28 238.83,114.53l189.95 -108.96c-82.4,-131.27 -240.23,-223.45 -427.38,-223.45 -287.73,0 -512.59,226.26 -512.59,509.78 0,280.73 220.67,506.99 527.95,506.99 273.75,0 481.85,-181.56 481.85,-480.45l0 -83.8z"/>
   </g>
   <polygon class="fil2" points="4897.9,576.11 4629.44,997.22 4417.07,286.05 "/>
  </g>
  <polygon class="fil3" points="4798.36,775.19 4662.2,997.22 4873.85,997.22 "/>
 </g>
</svg>
