<?xml version="1.0" encoding="UTF-8"?>
<!DOCTYPE svg PUBLIC "-//W3C//DTD SVG 1.1//EN" "http://www.w3.org/Graphics/SVG/1.1/DTD/svg11.dtd">
<!-- Creator: CorelDRAW -->
<svg xmlns="http://www.w3.org/2000/svg" xml:space="preserve" width="16.9333mm" height="18.16mm" version="1.1" style="shape-rendering:geometricPrecision; text-rendering:geometricPrecision; image-rendering:optimizeQuality; fill-rule:evenodd; clip-rule:evenodd"
viewBox="0 0 67.57 72.47"
 xmlns:xlink="http://www.w3.org/1999/xlink"
 xmlns:xodm="http://www.corel.com/coreldraw/odm/2003">
 <defs>
  <style type="text/css">
   <![CDATA[
    .fil0 {fill:#CCCCCC}
   ]]>
  </style>
 </defs>
 <g id="Camada_x0020_1">
  <metadata id="CorelCorpID_0Corel-Layer"/>
  <g id="_2652303027312">
   <path class="fil0" d="M46.31 21.96c3.9,-0.61 6.87,2.54 7.09,6.09 0.25,4.08 -1.97,7.22 -5.58,7.61 -6.07,0.66 -9.22,-6.48 -5.72,-11.33 0.89,-1.23 2.23,-2.07 4.21,-2.38zm7.17 11.93c0.04,2.18 -0.04,3.6 -1.07,5.08 -1.95,2.8 -6.4,3.06 -8.9,1.62 -1.35,-0.78 -2.09,-1.95 -2.65,-3.46l-1.61 0.6c0.05,1.18 1.47,3.02 2.04,3.5 3.4,2.91 9.47,2.43 12.1,-0.54 2.26,-2.55 1.99,-5.03 1.96,-9.06 -0.02,-3.7 0.05,-7.43 -0.02,-11.13l-1.83 -0.01 -0.01 3.18c-0.44,-0.27 -1.02,-1.95 -3.62,-3 -4.88,-1.98 -11.07,1.3 -11.17,7.89 -0.12,8.11 8.96,11.57 13.91,6.29 0.35,-0.37 0.36,-0.54 0.69,-0.84 0.02,-0.02 0.06,-0.05 0.08,-0.06 0.02,-0.02 0.05,-0.05 0.08,-0.07z"/>
   <path class="fil0" d="M19.76 56.11c-0.21,0.82 -0.97,2.16 -1.43,2.83 -4.16,6.13 -16.26,4.06 -16.19,-6.68 0.06,-10.63 11.82,-12.76 16.24,-6.52 0.29,0.42 0.5,0.77 0.78,1.33l0.69 1.36c0.01,-0.02 0.03,0.05 0.07,0.1l1.77 -0.72c0.01,-0.86 -1.3,-2.92 -1.69,-3.45 -5.52,-7.53 -20,-4.66 -19.98,8.01 0.01,10.8 11,14.47 17.39,10.39 1.84,-1.17 4.3,-4.4 4.27,-5.94 -0.45,-0.22 -1.35,-0.64 -1.9,-0.7z"/>
   <path class="fil0" d="M13.39 12.45c0.53,0.18 1.27,0.1 1.84,0.06 0.04,-1.86 0.01,-3.76 0.01,-5.62 0,-1.52 -0.43,-4.18 0.78,-4.81 0.7,-0.37 9.5,-0.17 11.06,-0.17 7.45,0 15.09,-0.17 22.52,0.01 0.38,0.97 3.73,5.58 3.78,6.45 0.14,2.53 -0.2,8.47 0.03,10.26l1.79 0.01c0.18,-1.61 0.03,-4.11 0.03,-5.82 0,-6.65 0.7,-4.03 -2.44,-9.22l-2.24 -3.51c-3.96,-0.18 -8.36,-0.01 -12.37,-0.01 -6.2,0 -12.41,0 -18.61,0 -2.05,0 -4.01,-0.27 -5.23,0.96 -1.25,1.26 -0.96,3.07 -0.96,5.23 0,2.07 -0,4.13 0,6.2z"/>
   <path class="fil0" d="M24.87 63.89l2.05 0.04c0.11,-3.67 -0.12,-7.4 0.01,-11.05 0.22,-6.29 10.91,-7.65 11.44,0.1 0.16,2.3 -0.13,9.79 0.09,10.94l1.91 0.02c0.16,-0.8 0.06,-7.19 0.06,-8.52 -0,-3.09 0.07,-5.04 -1.51,-7.08 -2.48,-3.22 -8.49,-3.58 -11.6,-0.09l-0.39 0.35 -0.02 -9.09 -2.03 -0.05 -0.03 24.44z"/>
   <path class="fil0" d="M21.52 29.84c-0.56,-3.35 1.44,-7.14 5.35,-7.85 3.99,-0.73 6.97,2.33 7.31,5.84 0.4,4.14 -1.86,7.46 -5.3,7.9 -4.26,0.54 -6.75,-2.25 -7.36,-5.88zm12.72 4.13l0.04 3.26 1.85 0 -0.01 -16.72 -1.8 -0.03 -0.05 3.25c-0.44,-0.41 -0.58,-0.91 -1.55,-1.76 -0.54,-0.48 -1.29,-0.92 -2.13,-1.26 -4.67,-1.87 -11.09,1.19 -11.11,8.18 -0.02,7.48 7.97,11.23 13.22,6.89 0.73,-0.6 0.91,-1.05 1.54,-1.81z"/>
   <path class="fil0" d="M13.46 65.8c-0.14,0.84 -0.06,2.55 -0.05,3.47 0.02,2.79 1.83,3.13 3.85,3.13l30.87 0c2.12,0 4.67,0.46 5.74,-1.09 0.6,-0.86 0.45,-1.78 0.45,-2.99 -0,-0.94 0.09,-2.44 -0.03,-3.31 -0.24,-0.05 -1.53,-0.14 -1.7,0.06 -0.5,1.02 0.64,4.24 -0.77,5.26 -0.75,0.55 -4.36,0.29 -5.6,0.29 -2.94,0 -29.03,0.13 -29.87,-0.04 -1.72,-0.34 -0.97,-2.98 -1.15,-4.77l-1.75 0z"/>
   <path class="fil0" d="M65.77 58.04c-2.34,7.17 -13.02,5.27 -13,-2.93 0.01,-3.7 2.12,-6.42 5.13,-7.15 1.81,-0.44 3.78,-0.14 5.15,0.68 1.37,0.82 1.93,1.84 2.64,3.55l1.79 -0.78c-0.16,-0.89 -0.88,-2.05 -1.36,-2.65 -1.97,-2.46 -5.52,-3.44 -8.81,-2.64 -8.91,2.17 -8.81,16.13 0.32,18.01 2.36,0.48 4.83,0.02 6.57,-0.99 1.19,-0.69 3.16,-2.62 3.38,-4.44l-1.8 -0.66z"/>
   <polygon class="fil0" points="6.35,16.31 13.32,16.32 13.36,37.2 15.27,37.22 15.3,16.31 22.3,16.3 22.31,14.52 6.37,14.49 "/>
   <path class="fil0" d="M45.02 46.18c-0.01,1.11 -0.12,16.98 0.07,17.77l1.93 -0.03 0.01 -17.66c-0.61,-0.18 -1.37,-0.07 -2.02,-0.08z"/>
   <path class="fil0" d="M46.43 6.54c-2.7,0.9 -1.33,4.74 1.2,3.97 2.71,-0.82 1.33,-4.82 -1.2,-3.97z"/>
  </g>
 </g>
</svg>
