<?xml version="1.0" encoding="UTF-8"?>
<!DOCTYPE svg PUBLIC "-//W3C//DTD SVG 1.1//EN" "http://www.w3.org/Graphics/SVG/1.1/DTD/svg11.dtd">
<!-- Creator: CorelDRAW -->
<svg xmlns="http://www.w3.org/2000/svg" xml:space="preserve" width="42.3333mm" height="7.8939mm" version="1.1" style="shape-rendering:geometricPrecision; text-rendering:geometricPrecision; image-rendering:optimizeQuality; fill-rule:evenodd; clip-rule:evenodd"
viewBox="0 0 1423.11 265.37"
 xmlns:xlink="http://www.w3.org/1999/xlink"
 xmlns:xodm="http://www.corel.com/coreldraw/odm/2003">
 <defs>
  <style type="text/css">
   <![CDATA[
    .fil1 {fill:#FFC052;fill-rule:nonzero}
    .fil0 {fill:white;fill-rule:nonzero}
   ]]>
  </style>
 </defs>
 <g id="Camada_x0020_1">
  <metadata id="CorelCorpID_0Corel-Layer"/>
  <g id="_2143718068848">
   <g>
    <path class="fil0" d="M260.64 255.55l2.43 2.19c-5.58,5.08 -12.16,7.63 -19.72,7.63 -8.12,0 -15.03,-2.86 -20.75,-8.58 -5.72,-5.72 -8.58,-12.64 -8.58,-20.75 0,-8.09 2.86,-14.99 8.58,-20.72 5.72,-5.73 12.64,-8.59 20.75,-8.59 7.56,0 14.14,2.54 19.72,7.62l-2.43 2.21c-4.92,-4.36 -10.68,-6.55 -17.29,-6.55 -7.19,0 -13.32,2.54 -18.41,7.62 -5.09,5.09 -7.63,11.22 -7.63,18.41 0,7.21 2.54,13.36 7.63,18.44 5.08,5.09 11.22,7.63 18.41,7.63 6.61,0 12.37,-2.19 17.29,-6.55zm49.94 -48.98c8.12,0 15.03,2.87 20.78,8.62 5.75,5.73 8.62,12.66 8.62,20.78 0,8.12 -2.87,15.04 -8.62,20.79 -5.75,5.74 -12.66,8.62 -20.78,8.62 -8.13,0 -15.05,-2.87 -20.79,-8.62 -5.75,-5.75 -8.62,-12.67 -8.62,-20.79 0,-8.12 2.87,-15.05 8.62,-20.78 5.74,-5.74 12.66,-8.62 20.79,-8.62zm0 3.3c-7.21,0 -13.37,2.54 -18.47,7.64 -5.1,5.1 -7.64,11.25 -7.64,18.46 0,7.21 2.54,13.37 7.64,18.48 5.1,5.11 11.26,7.66 18.47,7.66 7.2,0 13.36,-2.55 18.45,-7.66 5.1,-5.11 7.64,-11.27 7.64,-18.48 0,-7.2 -2.54,-13.36 -7.64,-18.46 -5.1,-5.1 -11.25,-7.64 -18.45,-7.64zm49.29 -2.48l3.53 0 29.44 50.95 0 -50.95 3.21 0 0 57.29 -3.21 0 -29.76 -51.45 0 51.45 -3.21 0 0 -57.29zm71.23 25.57c-4.08,-1.35 -7.29,-3.21 -9.67,-5.58 -2.36,-2.36 -3.54,-5.22 -3.54,-8.59 0,-3.29 1.19,-6.12 3.54,-8.51 2.37,-2.37 5.23,-3.56 8.61,-3.56 3.33,0 6.2,1.17 8.59,3.54 1.31,1.26 2.21,2.69 2.72,4.27l-2.9 1.14c-0.43,-1.16 -1.14,-2.24 -2.11,-3.21 -1.73,-1.72 -3.84,-2.58 -6.29,-2.58 -2.47,0 -4.56,0.85 -6.31,2.59 -1.75,1.73 -2.62,3.84 -2.62,6.32 0,2.46 0.87,4.56 2.62,6.31 1.62,1.6 3.86,3.07 6.73,4.4 4.58,1.48 8.43,3.79 11.56,6.9 3.32,3.3 4.98,7.28 4.98,11.96 0,4.71 -1.65,8.71 -4.98,12.02 -3.31,3.32 -7.32,4.99 -11.99,4.99 -4.68,0 -8.68,-1.67 -12,-5.01 -2.65,-2.65 -4.24,-5.73 -4.76,-9.24l3.05 -1.11c0.33,3.1 1.65,5.81 3.97,8.13 2.69,2.7 5.94,4.05 9.74,4.05 3.81,0 7.08,-1.34 9.76,-4.05 2.7,-2.7 4.05,-5.95 4.05,-9.78 0,-3.8 -1.34,-7.04 -4.05,-9.74 -2.36,-2.36 -5.25,-4.25 -8.7,-5.66zm67.27 -25.57l3.26 0 0 41.18c-0.6,4.36 -2.42,8.08 -5.48,11.13 -3.65,3.65 -8.05,5.48 -13.21,5.48 -5.18,0 -9.59,-1.82 -13.25,-5.48 -3.65,-3.65 -5.47,-8.05 -5.47,-13.21l0 -39.11 3.25 0 0 39.11c0,4.24 1.51,7.88 4.53,10.9 3.02,3.02 6.66,4.52 10.94,4.52 4.27,0 7.91,-1.5 10.92,-4.52 3.01,-3.02 4.51,-6.66 4.51,-10.9l0 -39.11zm24.06 57.29l0 -57.29 3.21 0 0 54.07 22.2 0 0 3.23 -25.42 0zm55.23 -54.07l0 54.07 -3.23 0 0 -54.07 -14.5 0 0 -3.23 32.22 0 0 3.23 -14.5 0zm57.6 -4.05c8.12,0 15.03,2.87 20.78,8.62 5.75,5.73 8.62,12.66 8.62,20.78 0,8.12 -2.87,15.04 -8.62,20.79 -5.75,5.74 -12.66,8.62 -20.78,8.62 -8.13,0 -15.05,-2.87 -20.79,-8.62 -5.75,-5.75 -8.62,-12.67 -8.62,-20.79 0,-8.12 2.87,-15.05 8.62,-20.78 5.74,-5.74 12.66,-8.62 20.79,-8.62zm0 3.3c-7.21,0 -13.37,2.54 -18.47,7.64 -5.1,5.1 -7.64,11.25 -7.64,18.46 0,7.21 2.54,13.37 7.64,18.48 5.1,5.11 11.26,7.66 18.47,7.66 7.2,0 13.36,-2.55 18.45,-7.66 5.1,-5.11 7.64,-11.27 7.64,-18.48 0,-7.2 -2.54,-13.36 -7.64,-18.46 -5.1,-5.1 -11.25,-7.64 -18.45,-7.64zm52.51 0.78l0 30.9 9.74 0c4.25,0 7.88,-1.5 10.9,-4.52 3.02,-3.02 4.53,-6.67 4.53,-10.94 0,-4.28 -1.52,-7.92 -4.53,-10.93 -3.02,-3.01 -6.65,-4.51 -10.9,-4.51l-9.74 0zm10.7 34.12c-0.3,0.02 -0.64,0.04 -0.96,0.04l-9.74 0 0 19.87 -3.21 0 0 -57.29 15.03 0c4.36,0.6 8.08,2.43 11.13,5.49 3.65,3.65 5.48,8.05 5.48,13.21 0,5.18 -1.82,9.59 -5.48,13.25 -2.53,2.53 -5.43,4.19 -8.7,4.98l13.21 20.37 -3.97 0 -12.78 -19.91zm39.05 -37.39l0 57.29 -3.23 0 0 -57.29 3.23 0zm48 32.12l-8.73 -24.02 -8.74 24.02 17.46 0zm1.18 3.23l-19.83 0 -7.98 21.95 -3.44 0 21.34 -58.61 21.3 58.61 -3.41 0 -7.98 -21.95zm57.16 -31.97l0 50.6 0.26 0c8.49,0 15.02,-2.3 19.58,-6.88 5.09,-5.08 7.63,-11.23 7.63,-18.44 0,-7.18 -2.54,-13.33 -7.63,-18.44 -4.56,-4.56 -11.08,-6.83 -19.58,-6.83l-0.26 0zm0 -3.3l0.26 0c9.42,0 16.73,2.6 21.91,7.81 5.72,5.76 8.59,12.67 8.59,20.76 0,8.12 -2.87,15.05 -8.59,20.77 -5.18,5.21 -12.49,7.81 -21.91,7.81l-0.26 0 0 0.07 -3.21 0 0 -57.29 3.21 0 0 0.07zm78.4 -0.07l0 3.23 -25.42 0 0 23.81 25.42 0 0 3.22 -25.42 0 0 23.81 25.42 0 0 3.23 -28.63 0 0 -57.29 28.63 0zm45.24 0l3.53 0 29.45 50.95 0 -50.95 3.21 0 0 57.29 -3.21 0 -29.76 -51.45 0 51.45 -3.21 0 0 -57.29zm85.63 0l0 3.23 -25.42 0 0 23.81 25.42 0 0 3.22 -25.42 0 0 23.81 25.42 0 0 3.23 -28.63 0 0 -57.29 28.63 0zm67.83 50.17c-5.44,5.2 -11.94,7.81 -19.5,7.81 -8.12,0 -15.03,-2.86 -20.75,-8.58 -5.72,-5.72 -8.58,-12.64 -8.58,-20.75 0,-8.09 2.86,-14.99 8.58,-20.72 5.72,-5.73 12.64,-8.59 20.75,-8.59 7.56,0 14.14,2.54 19.72,7.62l-2.43 2.21c-4.92,-4.36 -10.68,-6.55 -17.29,-6.55 -7.19,0 -13.32,2.54 -18.41,7.62 -5.09,5.09 -7.63,11.22 -7.63,18.41 0,7.21 2.54,13.36 7.63,18.44 5.08,5.09 11.22,7.63 18.41,7.63 6.16,0 11.58,-1.9 16.29,-5.69l0 -17.46 3.21 0 0 18.61zm48.62 -50.99c8.12,0 15.03,2.87 20.78,8.62 5.75,5.73 8.62,12.66 8.62,20.78 0,8.12 -2.87,15.04 -8.62,20.79 -5.75,5.74 -12.66,8.62 -20.78,8.62 -8.13,0 -15.05,-2.87 -20.79,-8.62 -5.75,-5.75 -8.62,-12.67 -8.62,-20.79 0,-8.12 2.87,-15.05 8.62,-20.78 5.74,-5.74 12.66,-8.62 20.79,-8.62zm0 3.3c-7.21,0 -13.37,2.54 -18.47,7.64 -5.1,5.1 -7.64,11.25 -7.64,18.46 0,7.21 2.54,13.37 7.64,18.48 5.1,5.11 11.26,7.66 18.47,7.66 7.2,0 13.36,-2.55 18.45,-7.66 5.1,-5.11 7.64,-11.27 7.64,-18.48 0,-7.2 -2.54,-13.36 -7.64,-18.46 -5.1,-5.1 -11.25,-7.64 -18.45,-7.64zm7.83 -16.98l-8.77 6.7 -3.01 0 5.84 -6.7 5.94 0zm87.18 62.66l2.43 2.19c-5.58,5.08 -12.16,7.63 -19.72,7.63 -8.12,0 -15.03,-2.86 -20.75,-8.58 -5.72,-5.72 -8.58,-12.64 -8.58,-20.75 0,-8.09 2.86,-14.99 8.58,-20.72 5.72,-5.73 12.64,-8.59 20.75,-8.59 7.56,0 14.14,2.54 19.72,7.62l-2.43 2.21c-4.92,-4.36 -10.68,-6.55 -17.29,-6.55 -7.19,0 -13.32,2.54 -18.41,7.62 -5.09,5.09 -7.63,11.22 -7.63,18.41 0,7.21 2.54,13.36 7.63,18.44 5.08,5.09 11.22,7.63 18.41,7.63 6.61,0 12.37,-2.19 17.29,-6.55zm25.37 -48.16l0 57.29 -3.23 0 0 -57.29 3.23 0zm50.02 -0.82c8.12,0 15.03,2.87 20.78,8.62 5.75,5.73 8.62,12.66 8.62,20.78 0,8.12 -2.87,15.04 -8.62,20.79 -5.75,5.74 -12.66,8.62 -20.78,8.62 -8.13,0 -15.05,-2.87 -20.79,-8.62 -5.75,-5.75 -8.62,-12.67 -8.62,-20.79 0,-8.12 2.87,-15.05 8.62,-20.78 5.74,-5.74 12.66,-8.62 20.79,-8.62zm0 3.3c-7.21,0 -13.37,2.54 -18.47,7.64 -5.1,5.1 -7.64,11.25 -7.64,18.46 0,7.21 2.54,13.37 7.64,18.48 5.1,5.11 11.26,7.66 18.47,7.66 7.2,0 13.36,-2.55 18.45,-7.66 5.1,-5.11 7.64,-11.27 7.64,-18.48 0,-7.2 -2.54,-13.36 -7.64,-18.46 -5.1,-5.1 -11.25,-7.64 -18.45,-7.64zm63.53 23.08c-4.08,-1.35 -7.29,-3.21 -9.67,-5.58 -2.36,-2.36 -3.54,-5.22 -3.54,-8.59 0,-3.29 1.19,-6.12 3.54,-8.51 2.37,-2.37 5.23,-3.56 8.61,-3.56 3.33,0 6.2,1.17 8.59,3.54 1.31,1.26 2.21,2.69 2.72,4.27l-2.9 1.14c-0.43,-1.16 -1.14,-2.24 -2.11,-3.21 -1.73,-1.72 -3.84,-2.58 -6.29,-2.58 -2.47,0 -4.56,0.85 -6.31,2.59 -1.75,1.73 -2.62,3.84 -2.62,6.32 0,2.46 0.87,4.56 2.62,6.31 1.62,1.6 3.86,3.07 6.73,4.4 4.58,1.48 8.43,3.79 11.56,6.9 3.32,3.3 4.98,7.28 4.98,11.96 0,4.71 -1.65,8.71 -4.98,12.02 -3.31,3.32 -7.32,4.99 -11.99,4.99 -4.68,0 -8.68,-1.67 -12,-5.01 -2.65,-2.65 -4.24,-5.73 -4.76,-9.24l3.05 -1.11c0.33,3.1 1.65,5.81 3.97,8.13 2.69,2.7 5.94,4.05 9.74,4.05 3.81,0 7.08,-1.34 9.76,-4.05 2.7,-2.7 4.05,-5.95 4.05,-9.78 0,-3.8 -1.34,-7.04 -4.05,-9.74 -2.36,-2.36 -5.25,-4.25 -8.7,-5.66z"/>
    <path class="fil0" d="M334.34 118.15l14.8 13.24c-18.05,16.46 -37.14,24.68 -57.27,24.68 -21.53,0 -39.9,-7.61 -55.09,-22.76 -15.15,-15.19 -22.77,-33.56 -22.77,-55.09 0,-21.46 7.61,-39.81 22.77,-55.06 15.19,-15.25 33.56,-22.86 55.09,-22.86 20.13,0 39.22,8.23 57.27,24.68l-14.8 13.43c-13.59,-12.07 -27.74,-18.12 -42.47,-18.12 -15.94,0 -29.6,5.66 -40.91,16.95 -11.35,11.32 -17.01,24.97 -17.01,40.98 0,16.07 5.66,29.76 17.01,41.08 11.32,11.31 24.97,16.94 40.91,16.94 14.73,0 28.88,-6.02 42.47,-18.08zm114.18 -118.15c21.53,0 39.9,7.61 55.16,22.86 15.26,15.25 22.87,33.62 22.87,55.16 0,21.53 -7.61,39.93 -22.87,55.19 -15.25,15.22 -33.63,22.86 -55.16,22.86 -21.53,0 -39.93,-7.64 -55.19,-22.86 -15.22,-15.25 -22.86,-33.66 -22.86,-55.19 0,-21.53 7.64,-39.9 22.86,-55.16 15.26,-15.25 33.66,-22.86 55.19,-22.86zm0 19.9c-16.06,0 -29.79,5.69 -41.11,17.01 -11.35,11.35 -17.01,25.04 -17.01,41.11 0,16.1 5.66,29.79 17.04,41.17 11.38,11.38 25.04,17.04 41.07,17.04 16.07,0 29.76,-5.66 41.11,-17.04 11.32,-11.38 17.01,-25.07 17.01,-41.17 0,-16.07 -5.69,-29.76 -17.01,-41.11 -11.35,-11.32 -25.04,-17.01 -41.11,-17.01zm104.33 -17.92l17.99 0 62.89 108.81 0 -108.81 19.8 0 0 152.46 -17.24 0 -63.74 -110.15 0 110.15 -19.71 0 0 -152.46zm168.07 74.25c-10.8,-3.64 -19.55,-8.78 -26.24,-15.48 -6.7,-6.7 -10.05,-15.02 -10.05,-24.91 0,-9.73 3.48,-18.08 10.4,-25.07 6.96,-7 15.42,-10.47 25.3,-10.47 9.79,0 18.18,3.44 25.17,10.37 3.94,3.81 7.22,9.89 9.89,18.21l-17.88 7.02c-2.18,-5.82 -4.13,-9.63 -5.92,-11.42 -3.12,-3.05 -6.86,-4.59 -11.25,-4.59 -4.42,0 -8.23,1.56 -11.32,4.62 -3.13,3.09 -4.69,6.86 -4.69,11.32 0,4.42 1.56,8.19 4.69,11.32 3.48,3.45 8.32,6.57 14.47,9.43 11.93,3.87 22.08,9.98 30.41,18.31 9.33,9.2 13.98,20.39 13.98,33.53 0,13.14 -4.65,24.36 -13.95,33.69 -9.3,9.3 -20.49,13.95 -33.59,13.95 -13.14,0 -24.36,-4.68 -33.63,-14.01 -7.42,-7.42 -12.13,-17.69 -14.08,-30.77l19.12 -6.96c1.24,11.25 4.17,19.22 8.88,23.9 5.47,5.47 12.03,8.2 19.71,8.2 7.7,0 14.27,-2.73 19.74,-8.2 5.46,-5.46 8.2,-12.07 8.2,-19.8 0,-7.67 -2.73,-14.28 -8.2,-19.74 -5.2,-5.2 -11.61,-9.37 -19.15,-12.46zm149.99 -74.25l19.8 0 0 107.39c-1.72,12.26 -6.76,22.63 -15.16,31.06 -10.14,10.18 -22.37,15.25 -36.68,15.25 -14.28,0 -26.51,-5.07 -36.62,-15.19 -10.15,-10.14 -15.19,-22.34 -15.19,-36.65l0 -101.86 19.81 0 0 101.86c0,8.78 3.12,16.29 9.36,22.54 6.28,6.28 13.82,9.4 22.64,9.4 8.91,0 16.46,-3.12 22.7,-9.34 6.21,-6.24 9.34,-13.76 9.34,-22.6l0 -101.86zm48.39 152.46l0 -152.46 19.71 0 0 132.65 54.51 0 0 19.81 -74.21 0zm134.99 -132.72l0 132.72 -19.83 0 0 -132.72 -35.52 0 0 -19.74 90.87 0 0 19.74 -35.52 0zm76.2 -19.74l0 152.46 -19.71 0 0 -152.46 19.71 0zm30.6 0l17.99 0 62.89 108.81 0 -108.81 19.81 0 0 152.46 -17.24 0 -63.74 -110.15 0 110.15 -19.71 0 0 -152.46zm258.57 131.58c-15.67,14.99 -33.63,22.5 -53.82,22.5 -21.53,0 -39.91,-7.61 -55.09,-22.76 -15.15,-15.19 -22.77,-33.56 -22.77,-55.09 0,-21.46 7.61,-39.81 22.77,-55.06 15.18,-15.25 33.56,-22.86 55.09,-22.86 20.13,0 39.22,8.23 57.27,24.68l-14.8 13.43c-13.59,-12.07 -27.74,-18.12 -42.47,-18.12 -15.94,0 -29.6,5.66 -40.91,16.95 -11.35,11.32 -17.01,24.97 -17.01,40.98 0,16.07 5.66,29.76 17.01,41.08 11.32,11.31 24.97,16.94 40.91,16.94 13.72,0 25.07,-3.61 34.11,-10.86l0 -46.01 19.71 0 0 54.21z"/>
   </g>
   <g>
    <polygon class="fil0" points="96.08,264.68 -0,0 67.91,0 130.14,171.14 "/>
    <polygon class="fil1" points="142.38,137.13 192.16,0 124.25,0 108.38,43.63 "/>
   </g>
  </g>
 </g>
</svg>
