<?xml version="1.0" encoding="UTF-8"?>
<!DOCTYPE svg PUBLIC "-//W3C//DTD SVG 1.1//EN" "http://www.w3.org/Graphics/SVG/1.1/DTD/svg11.dtd">
<!-- Creator: CorelDRAW -->
<svg xmlns="http://www.w3.org/2000/svg" xml:space="preserve" width="389.616mm" height="212.267mm" version="1.1" style="shape-rendering:geometricPrecision; text-rendering:geometricPrecision; image-rendering:optimizeQuality; fill-rule:evenodd; clip-rule:evenodd"
viewBox="0 0 11209.52 6107.06"
 xmlns:xlink="http://www.w3.org/1999/xlink"
 xmlns:xodm="http://www.corel.com/coreldraw/odm/2003">
 <defs>
  <style type="text/css">
   <![CDATA[
    .str0 {stroke:white;stroke-width:4.87;stroke-miterlimit:22.9256}
    .fil0 {fill:none}
   ]]>
  </style>
 </defs>
 <g id="Camada_x0020_1">
  <metadata id="CorelCorpID_0Corel-Layer"/>
  <g id="_1419380920048">
   <rect class="fil0 str0" transform="matrix(0.00443315 0.642216 -0.642216 0.00443315 5529.53 1.7008)" width="1206.18" height="1206.18" rx="165.23" ry="165.23"/>
   <rect class="fil0 str0" transform="matrix(0.00443315 0.642216 -0.642216 0.00443315 4578.89 684.361)" width="1206.18" height="1206.18" rx="165.23" ry="165.23"/>
   <rect class="fil0 str0" transform="matrix(0.00443315 0.642216 -0.642216 0.00443315 3628.25 1367.02)" width="1206.18" height="1206.18" rx="165.23" ry="165.23"/>
   <rect class="fil0 str0" transform="matrix(0.00443315 0.642216 -0.642216 0.00443315 4570.69 1625.08)" width="1206.18" height="1206.18" rx="165.23" ry="165.23"/>
   <rect class="fil0 str0" transform="matrix(0.00443315 0.642216 -0.642216 0.00443315 5513.13 1883.13)" width="1206.18" height="1206.18" rx="165.23" ry="165.23"/>
   <rect class="fil0 str0" transform="matrix(0.00443315 0.642216 -0.642216 0.00443315 2677.61 2049.68)" width="1206.18" height="1206.18" rx="165.23" ry="165.23"/>
   <rect class="fil0 str0" transform="matrix(0.00443315 0.642216 -0.642216 0.00443315 4562.49 2565.79)" width="1206.18" height="1206.18" rx="165.23" ry="165.23"/>
   <rect class="fil0 str0" transform="matrix(0.00443315 0.642216 -0.642216 0.00443315 1726.97 2732.34)" width="1206.18" height="1206.18" rx="165.23" ry="165.23"/>
   <rect class="fil0 str0" transform="matrix(0.00443315 0.642216 -0.642216 0.00443315 2669.41 2990.39)" width="1206.18" height="1206.18" rx="165.23" ry="165.23"/>
   <rect class="fil0 str0" transform="matrix(0.00443315 0.642216 -0.642216 0.00443315 3611.85 3248.45)" width="1206.18" height="1206.18" rx="165.23" ry="165.23"/>
   <rect class="fil0 str0" transform="matrix(0.00443315 0.642216 -0.642216 0.00443315 4554.29 3506.5)" width="1206.18" height="1206.18" rx="165.23" ry="165.23"/>
   <rect class="fil0 str0" transform="matrix(0.00443315 0.642216 -0.642216 0.00443315 5496.73 3764.56)" width="1206.18" height="1206.18" rx="165.23" ry="165.23"/>
   <rect class="fil0 str0" transform="matrix(0.00443315 0.642216 -0.642216 0.00443315 776.329 3415)" width="1206.18" height="1206.18" rx="165.23" ry="165.23"/>
   <rect class="fil0 str0" transform="matrix(0.00443315 0.642216 -0.642216 0.00443315 5521.33 942.415)" width="1206.18" height="1206.18" rx="165.23" ry="165.23"/>
   <rect class="fil0 str0" transform="matrix(0.00443315 0.642216 -0.642216 0.00443315 3620.05 2307.73)" width="1206.18" height="1206.18" rx="165.23" ry="165.23"/>
   <rect class="fil0 str0" transform="matrix(0.00443315 0.642216 -0.642216 0.00443315 1718.77 3673.05)" width="1206.18" height="1206.18" rx="165.23" ry="165.23"/>
   <rect class="fil0 str0" transform="matrix(0.00443315 0.642216 -0.642216 0.00443315 2661.21 3931.11)" width="1206.18" height="1206.18" rx="165.23" ry="165.23"/>
   <rect class="fil0 str0" transform="matrix(0.00443315 0.642216 -0.642216 0.00443315 5504.93 2823.84)" width="1206.18" height="1206.18" rx="165.23" ry="165.23"/>
   <rect class="fil0 str0" transform="matrix(0.00443315 0.642216 -0.642216 0.00443315 3603.65 4189.16)" width="1206.18" height="1206.18" rx="165.23" ry="165.23"/>
   <rect class="fil0 str0" transform="matrix(0.00443315 0.642216 -0.642216 0.00443315 4546.08 4447.22)" width="1206.18" height="1206.18" rx="165.23" ry="165.23"/>
   <rect class="fil0 str0" transform="matrix(0.00443315 0.642216 -0.642216 0.00443315 5488.52 4705.27)" width="1206.18" height="1206.18" rx="165.23" ry="165.23"/>
  </g>
  <g id="_1419380921968">
   <rect class="fil0 str0" transform="matrix(-0.00443315 -0.642216 0.642216 -0.00443315 5679.99 6105.36)" width="1206.18" height="1206.18" rx="165.23" ry="165.23"/>
   <rect class="fil0 str0" transform="matrix(-0.00443315 -0.642216 0.642216 -0.00443315 6630.63 5422.7)" width="1206.18" height="1206.18" rx="165.23" ry="165.23"/>
   <rect class="fil0 str0" transform="matrix(-0.00443315 -0.642216 0.642216 -0.00443315 7581.27 4740.04)" width="1206.18" height="1206.18" rx="165.23" ry="165.23"/>
   <rect class="fil0 str0" transform="matrix(-0.00443315 -0.642216 0.642216 -0.00443315 6638.83 4481.98)" width="1206.18" height="1206.18" rx="165.23" ry="165.23"/>
   <rect class="fil0 str0" transform="matrix(-0.00443315 -0.642216 0.642216 -0.00443315 5696.39 4223.93)" width="1206.18" height="1206.18" rx="165.23" ry="165.23"/>
   <rect class="fil0 str0" transform="matrix(-0.00443315 -0.642216 0.642216 -0.00443315 8531.91 4057.38)" width="1206.18" height="1206.18" rx="165.23" ry="165.23"/>
   <rect class="fil0 str0" transform="matrix(-0.00443315 -0.642216 0.642216 -0.00443315 6647.04 3541.27)" width="1206.18" height="1206.18" rx="165.23" ry="165.23"/>
   <rect class="fil0 str0" transform="matrix(-0.00443315 -0.642216 0.642216 -0.00443315 9482.55 3374.72)" width="1206.18" height="1206.18" rx="165.23" ry="165.23"/>
   <rect class="fil0 str0" transform="matrix(-0.00443315 -0.642216 0.642216 -0.00443315 8540.11 3116.66)" width="1206.18" height="1206.18" rx="165.23" ry="165.23"/>
   <rect class="fil0 str0" transform="matrix(-0.00443315 -0.642216 0.642216 -0.00443315 7597.68 2858.61)" width="1206.18" height="1206.18" rx="165.23" ry="165.23"/>
   <rect class="fil0 str0" transform="matrix(-0.00443315 -0.642216 0.642216 -0.00443315 6655.24 2600.56)" width="1206.18" height="1206.18" rx="165.23" ry="165.23"/>
   <rect class="fil0 str0" transform="matrix(-0.00443315 -0.642216 0.642216 -0.00443315 5712.8 2342.5)" width="1206.18" height="1206.18" rx="165.23" ry="165.23"/>
   <rect class="fil0 str0" transform="matrix(-0.00443315 -0.642216 0.642216 -0.00443315 10433.2 2692.06)" width="1206.18" height="1206.18" rx="165.23" ry="165.23"/>
   <rect class="fil0 str0" transform="matrix(-0.00443315 -0.642216 0.642216 -0.00443315 5688.19 5164.64)" width="1206.18" height="1206.18" rx="165.23" ry="165.23"/>
   <rect class="fil0 str0" transform="matrix(-0.00443315 -0.642216 0.642216 -0.00443315 7589.47 3799.32)" width="1206.18" height="1206.18" rx="165.23" ry="165.23"/>
   <rect class="fil0 str0" transform="matrix(-0.00443315 -0.642216 0.642216 -0.00443315 9490.76 2434)" width="1206.18" height="1206.18" rx="165.23" ry="165.23"/>
   <rect class="fil0 str0" transform="matrix(-0.00443315 -0.642216 0.642216 -0.00443315 8548.32 2175.95)" width="1206.18" height="1206.18" rx="165.23" ry="165.23"/>
   <rect class="fil0 str0" transform="matrix(-0.00443315 -0.642216 0.642216 -0.00443315 5704.6 3283.22)" width="1206.18" height="1206.18" rx="165.23" ry="165.23"/>
   <rect class="fil0 str0" transform="matrix(-0.00443315 -0.642216 0.642216 -0.00443315 7605.88 1917.9)" width="1206.18" height="1206.18" rx="165.23" ry="165.23"/>
   <rect class="fil0 str0" transform="matrix(-0.00443315 -0.642216 0.642216 -0.00443315 6663.44 1659.84)" width="1206.18" height="1206.18" rx="165.23" ry="165.23"/>
   <rect class="fil0 str0" transform="matrix(-0.00443315 -0.642216 0.642216 -0.00443315 5721 1401.79)" width="1206.18" height="1206.18" rx="165.23" ry="165.23"/>
  </g>
 </g>
</svg>
