<?xml version="1.0" encoding="UTF-8"?>
<!DOCTYPE svg PUBLIC "-//W3C//DTD SVG 1.1//EN" "http://www.w3.org/Graphics/SVG/1.1/DTD/svg11.dtd">
<!-- Creator: CorelDRAW -->
<svg xmlns="http://www.w3.org/2000/svg" xml:space="preserve" width="241.734mm" height="126.851mm" version="1.1" style="shape-rendering:geometricPrecision; text-rendering:geometricPrecision; image-rendering:optimizeQuality; fill-rule:evenodd; clip-rule:evenodd"
viewBox="0 0 20470.49 10742"
 xmlns:xlink="http://www.w3.org/1999/xlink"
 xmlns:xodm="http://www.corel.com/coreldraw/odm/2003">
 <defs>
  <style type="text/css">
   <![CDATA[
    .str0 {stroke:white;stroke-width:6.45;stroke-miterlimit:22.9256}
    .fil0 {fill:none}
   ]]>
  </style>
 </defs>
 <g id="Camada_x0020_1">
  <metadata id="CorelCorpID_0Corel-Layer"/>
  <g id="_1415196626112">
   <path class="fil0 str0" d="M3.23 2.9c0,0 103.9,1447.79 3261.44,937.08 3157.55,-510.72 5120.84,2268.05 5343.86,3239.82"/>
   <path class="fil0 str0" d="M158.14 73.05c0,0 103.9,1447.79 3261.45,937.08 3157.54,-510.72 5120.84,2268.05 5343.86,3239.82"/>
   <path class="fil0 str0" d="M313.07 143.19c0,0 103.9,1447.8 3261.45,937.09 3157.54,-510.72 5120.84,2268.05 5343.86,3239.82"/>
   <path class="fil0 str0" d="M467.99 213.34c0,0 103.9,1447.8 3261.45,937.08 3157.54,-510.71 5120.84,2268.05 5343.86,3239.82"/>
   <path class="fil0 str0" d="M622.92 283.49c0,0 103.9,1447.8 3261.45,937.08 3157.54,-510.71 5120.83,2268.05 5343.86,3239.82"/>
   <path class="fil0 str0" d="M777.85 353.64c0,0 103.9,1447.8 3261.45,937.08 3157.54,-510.71 5120.83,2268.05 5343.86,3239.82"/>
   <path class="fil0 str0" d="M932.77 423.79c0,0 103.9,1447.8 3261.44,937.08 3157.55,-510.71 5120.84,2268.05 5343.86,3239.82"/>
   <path class="fil0 str0" d="M1087.69 493.94c0,0 103.9,1447.79 3261.45,937.08 3157.54,-510.71 5120.84,2268.05 5343.86,3239.82"/>
   <path class="fil0 str0" d="M1242.61 564.09c0,0 103.9,1447.79 3261.45,937.08 3157.54,-510.72 5120.84,2268.05 5343.86,3239.82"/>
   <path class="fil0 str0" d="M1397.54 634.24c0,0 103.9,1447.79 3261.45,937.08 3157.54,-510.72 5120.84,2268.05 5343.86,3239.82"/>
   <path class="fil0 str0" d="M1552.47 704.38c0,0 103.9,1447.8 3261.45,937.09 3157.54,-510.72 5120.83,2268.05 5343.86,3239.82"/>
   <path class="fil0 str0" d="M1707.39 774.54c0,0 103.9,1447.8 3261.45,937.08 3157.54,-510.71 5120.83,2268.05 5343.86,3239.82"/>
   <path class="fil0 str0" d="M1862.31 844.69c0,0 103.9,1447.8 3261.45,937.08 3157.55,-510.71 5120.84,2268.05 5343.86,3239.82"/>
   <path class="fil0 str0" d="M2017.23 914.84c0,0 103.9,1447.8 3261.45,937.08 3157.54,-510.71 5120.84,2268.05 5343.86,3239.82"/>
   <path class="fil0 str0" d="M2172.16 984.99c0,0 103.9,1447.8 3261.45,937.08 3157.54,-510.71 5120.84,2268.05 5343.86,3239.82"/>
   <path class="fil0 str0" d="M2327.09 1055.14c0,0 103.9,1447.79 3261.45,937.08 3157.54,-510.72 5120.84,2268.05 5343.86,3239.82"/>
   <path class="fil0 str0" d="M2482.01 1125.29c0,0 103.9,1447.79 3261.45,937.08 3157.54,-510.72 5120.83,2268.05 5343.86,3239.82"/>
   <path class="fil0 str0" d="M2636.94 1195.43c0,0 103.9,1447.8 3261.44,937.09 3157.55,-510.72 5120.84,2268.05 5343.87,3239.82"/>
   <path class="fil0 str0" d="M2791.85 1265.58c0,0 103.9,1447.8 3261.45,937.09 3157.55,-510.72 5120.84,2268.05 5343.86,3239.82"/>
   <path class="fil0 str0" d="M2946.78 1335.73c0,0 103.9,1447.8 3261.45,937.08 3157.54,-510.71 5120.84,2268.05 5343.86,3239.82"/>
   <path class="fil0 str0" d="M3101.71 1405.88c0,0 103.9,1447.8 3261.45,937.08 3157.54,-510.71 5120.84,2268.05 5343.86,3239.82"/>
   <path class="fil0 str0" d="M3256.63 1476.03c0,0 103.9,1447.8 3261.45,937.08 3157.54,-510.71 5120.84,2268.05 5343.86,3239.82"/>
   <g>
    <path class="fil0 str0" d="M20467.27 9829.82c0,0 -103.9,-1447.8 -3261.44,-937.08 -3157.55,510.71 -5120.84,-2268.05 -5343.86,-3239.82"/>
    <path class="fil0 str0" d="M20312.35 9759.67c0,0 -103.9,-1447.8 -3261.45,-937.08 -3157.54,510.71 -5120.84,-2268.05 -5343.86,-3239.82"/>
    <path class="fil0 str0" d="M20157.42 9689.52c0,0 -103.9,-1447.79 -3261.45,-937.08 -3157.54,510.71 -5120.84,-2268.05 -5343.86,-3239.82"/>
    <path class="fil0 str0" d="M20002.5 9619.37c0,0 -103.9,-1447.79 -3261.45,-937.08 -3157.54,510.72 -5120.84,-2268.05 -5343.86,-3239.82"/>
    <path class="fil0 str0" d="M19847.57 9549.22c0,0 -103.9,-1447.79 -3261.45,-937.08 -3157.54,510.72 -5120.83,-2268.05 -5343.86,-3239.82"/>
    <path class="fil0 str0" d="M19692.65 9479.08c0,0 -103.9,-1447.8 -3261.45,-937.09 -3157.54,510.72 -5120.83,-2268.05 -5343.86,-3239.82"/>
    <path class="fil0 str0" d="M19537.72 9408.93c0,0 -103.9,-1447.8 -3261.44,-937.08 -3157.55,510.71 -5120.84,-2268.05 -5343.86,-3239.82"/>
    <path class="fil0 str0" d="M19382.8 9338.78c0,0 -103.9,-1447.8 -3261.45,-937.08 -3157.54,510.71 -5120.84,-2268.05 -5343.86,-3239.82"/>
    <path class="fil0 str0" d="M19227.88 9268.63c0,0 -103.9,-1447.8 -3261.45,-937.08 -3157.54,510.71 -5120.84,-2268.05 -5343.86,-3239.82"/>
    <path class="fil0 str0" d="M19072.95 9198.48c0,0 -103.9,-1447.8 -3261.45,-937.08 -3157.54,510.71 -5120.84,-2268.05 -5343.86,-3239.82"/>
    <path class="fil0 str0" d="M18918.03 9128.33c0,0 -103.9,-1447.79 -3261.45,-937.08 -3157.54,510.72 -5120.83,-2268.05 -5343.86,-3239.82"/>
    <path class="fil0 str0" d="M18763.1 9058.18c0,0 -103.9,-1447.79 -3261.45,-937.08 -3157.54,510.72 -5120.83,-2268.05 -5343.86,-3239.82"/>
    <path class="fil0 str0" d="M18608.18 8988.03c0,0 -103.9,-1447.8 -3261.45,-937.09 -3157.55,510.72 -5120.84,-2268.05 -5343.86,-3239.82"/>
    <path class="fil0 str0" d="M18453.26 8917.88c0,0 -103.9,-1447.8 -3261.45,-937.09 -3157.54,510.72 -5120.84,-2268.05 -5343.86,-3239.82"/>
    <path class="fil0 str0" d="M18298.33 8847.73c0,0 -103.9,-1447.8 -3261.45,-937.08 -3157.54,510.71 -5120.84,-2268.05 -5343.86,-3239.82"/>
    <path class="fil0 str0" d="M18143.41 8777.58c0,0 -103.9,-1447.8 -3261.45,-937.08 -3157.54,510.71 -5120.84,-2268.05 -5343.86,-3239.82"/>
    <path class="fil0 str0" d="M17988.48 8707.43c0,0 -103.9,-1447.8 -3261.45,-937.08 -3157.54,510.71 -5120.83,-2268.05 -5343.86,-3239.82"/>
    <path class="fil0 str0" d="M17833.55 8637.28c0,0 -103.9,-1447.8 -3261.44,-937.08 -3157.55,510.71 -5120.84,-2268.05 -5343.87,-3239.82"/>
    <path class="fil0 str0" d="M17678.64 8567.13c0,0 -103.9,-1447.79 -3261.45,-937.08 -3157.55,510.72 -5120.84,-2268.05 -5343.86,-3239.82"/>
    <path class="fil0 str0" d="M17523.71 8496.98c0,0 -103.9,-1447.79 -3261.45,-937.08 -3157.54,510.72 -5120.84,-2268.05 -5343.86,-3239.82"/>
    <path class="fil0 str0" d="M17368.79 8426.84c0,0 -103.9,-1447.8 -3261.45,-937.09 -3157.54,510.72 -5120.84,-2268.05 -5343.86,-3239.82"/>
    <path class="fil0 str0" d="M17213.86 8356.69c0,0 -103.9,-1447.8 -3261.45,-937.09 -3157.54,510.72 -5120.84,-2268.05 -5343.86,-3239.82"/>
   </g>
  </g>
  <g id="_1415196609360">
   <path class="fil0 str0" d="M3256.63 1476.02c0,0 4343.19,394.36 5403.39,5969.56 1060.2,5575.2 11807.26,2384.23 11807.26,2384.23"/>
   <path class="fil0 str0" d="M3101.71 1405.89c0,0 4343.19,394.36 5403.39,5969.56 1060.2,5575.2 11807.26,2384.23 11807.26,2384.23"/>
   <path class="fil0 str0" d="M2946.78 1335.76c0,0 4343.19,394.36 5403.39,5969.56 1060.2,5575.2 11807.26,2384.23 11807.26,2384.23"/>
   <path class="fil0 str0" d="M2791.85 1265.62c0,0 4343.19,394.36 5403.39,5969.56 1060.2,5575.2 11807.26,2384.23 11807.26,2384.23"/>
   <path class="fil0 str0" d="M2636.93 1195.49c0,0 4343.19,394.36 5403.39,5969.56 1060.2,5575.2 11807.26,2384.23 11807.26,2384.23"/>
   <path class="fil0 str0" d="M2482 1125.36c0,0 4343.19,394.36 5403.39,5969.56 1060.2,5575.2 11807.26,2384.23 11807.26,2384.23"/>
   <path class="fil0 str0" d="M2327.08 1055.22c0,0 4343.19,394.36 5403.39,5969.56 1060.2,5575.2 11807.26,2384.23 11807.26,2384.23"/>
   <path class="fil0 str0" d="M2172.15 985.09c0,0 4343.19,394.36 5403.39,5969.56 1060.2,5575.2 11807.26,2384.23 11807.26,2384.23"/>
   <path class="fil0 str0" d="M2017.23 914.95c0,0 4343.19,394.36 5403.39,5969.56 1060.2,5575.2 11807.26,2384.23 11807.26,2384.23"/>
   <path class="fil0 str0" d="M1862.3 844.82c0,0 4343.19,394.36 5403.39,5969.56 1060.2,5575.2 11807.26,2384.23 11807.26,2384.23"/>
   <path class="fil0 str0" d="M1707.37 774.69c0,0 4343.19,394.36 5403.39,5969.56 1060.2,5575.2 11807.26,2384.23 11807.26,2384.23"/>
   <path class="fil0 str0" d="M1552.45 704.55c0,0 4343.19,394.36 5403.39,5969.56 1060.2,5575.2 11807.26,2384.23 11807.26,2384.23"/>
   <path class="fil0 str0" d="M1397.52 634.42c0,0 4343.19,394.36 5403.39,5969.56 1060.2,5575.2 11807.26,2384.23 11807.26,2384.23"/>
   <path class="fil0 str0" d="M1242.6 564.29c0,0 4343.19,394.36 5403.39,5969.56 1060.2,5575.2 11807.26,2384.23 11807.26,2384.23"/>
   <path class="fil0 str0" d="M1087.67 494.15c0,0 4343.19,394.36 5403.39,5969.56 1060.2,5575.2 11807.26,2384.23 11807.26,2384.23"/>
   <path class="fil0 str0" d="M932.75 424.02c0,0 4343.19,394.36 5403.39,5969.56 1060.2,5575.2 11807.26,2384.23 11807.26,2384.23"/>
   <path class="fil0 str0" d="M777.82 353.89c0,0 4343.19,394.36 5403.39,5969.56 1060.2,5575.2 11807.26,2384.23 11807.26,2384.23"/>
   <path class="fil0 str0" d="M622.9 283.75c0,0 4343.19,394.36 5403.39,5969.56 1060.2,5575.2 11807.26,2384.23 11807.26,2384.23"/>
   <path class="fil0 str0" d="M467.97 213.62c0,0 4343.19,394.36 5403.39,5969.56 1060.2,5575.2 11807.26,2384.23 11807.26,2384.23"/>
   <path class="fil0 str0" d="M313.04 143.49c0,0 4343.19,394.36 5403.39,5969.56 1060.2,5575.2 11807.26,2384.23 11807.26,2384.23"/>
   <path class="fil0 str0" d="M158.12 73.35c0,0 4343.19,394.36 5403.39,5969.56 1060.2,5575.2 11807.26,2384.23 11807.26,2384.23"/>
   <path class="fil0 str0" d="M3.19 3.22c0,0 4343.19,394.36 5403.39,5969.56 1060.2,5575.2 11807.26,2384.23 11807.26,2384.23"/>
  </g>
 </g>
</svg>
