<svg xmlns="http://www.w3.org/2000/svg" width="1099" height="296" viewBox="0 0 1099 296" fill="none"><g clip-path="url(#clip0_38_2)"><path fill-rule="evenodd" clip-rule="evenodd" d="M96.1268 228.177V89.2439H98.7916V26.6042C46.763 36.2115 6.91554 72.3518 1.3212 116.866C6.3676 80.2219 39.2829 49.7962 83.8676 37.7491V79.222H82.2684V215.224C34.9572 201.889 1.17464 167.762 0.647339 127.65C0.647339 176.24 41.298 217.008 96.1268 228.177Z" fill="white"></path><path fill-rule="evenodd" clip-rule="evenodd" d="M99.1248 22.5417C66.7028 41.7583 44.3429 82.4134 44.3429 129.463C44.3429 195.037 87.7751 248.196 141.351 248.196C161.614 248.196 180.422 240.589 195.982 227.585H127.375V227.028H123.644V226.471H122.578V225.915H118.313L117.78 225.358H111.384V224.244H110.318V223.687H109.785V222.017H109.252V220.903H108.719L108.186 219.79V218.676H107.653V217.563H107.12V217.006H106.054V216.449H105.521C105.521 215.046 104.988 216.182 104.988 214.779H103.922V214.222H103.389V213.665H102.856V210.325H102.323V207.541H101.79V179.146H99.1248V22.5417Z" fill="white"></path><path fill-rule="evenodd" clip-rule="evenodd" d="M82.2684 59.7846V177.681C82.2684 210.563 107.627 237.466 138.622 237.466H213.275C226.785 237.466 239.224 232.353 248.96 223.862L241.465 218.807C239.178 216.797 237.12 214.734 235.387 212.523C227.699 220.535 217.177 225.496 205.615 225.496H149.257C125.859 225.496 106.715 205.187 106.715 180.363V54.4585C106.715 29.6352 125.859 9.32523 149.257 9.32523H205.615C215.594 9.32523 224.797 13.0219 232.074 19.1843C235.69 15.8256 241.254 12.9423 246.035 11.2184C236.787 4.16504 225.468 0 213.275 0H138.622C107.627 0 82.2684 26.903 82.2684 59.7846Z" fill="white"></path><path fill-rule="evenodd" clip-rule="evenodd" d="M205.524 24.7056C140.55 85.0398 107.881 115.471 107.52 116.001C131.157 116.001 142.976 116.001 142.976 116.001C142.976 116.001 181.218 78.2653 257.703 2.79512C236.004 7.99866 218.611 15.3023 205.524 24.7056Z" fill="white"></path><path fill-rule="evenodd" clip-rule="evenodd" d="M143.086 115.094C143.086 115.094 131.231 115.094 107.52 115.094C107.883 115.625 140.652 146.152 205.83 206.674C218.957 216.107 236.405 223.433 258.172 228.653C181.448 152.947 143.086 115.094 143.086 115.094Z" fill="white"></path></g><path d="M393.24 176.249L432.374 237.157H484.16L424.135 143.883L487.985 73.2656H431.197L375.586 135.35V0H331.156V237.157H375.586V195.375L393.24 176.249Z" fill="white"></path><path d="M632.792 71.5002H588.656V80.6216C577.181 74.7368 564.235 71.5002 550.994 71.5002C539.519 71.5002 528.632 73.8541 518.333 78.2676C508.329 82.387 499.208 88.566 491.558 96.2162C483.907 103.866 477.728 112.694 473.609 122.698C469.195 133.29 467.136 144.177 467.136 155.358C467.136 166.834 469.195 177.72 473.609 188.019C477.728 198.023 483.907 207.144 491.558 214.795C499.208 222.445 508.329 228.624 518.333 232.743C528.632 237.157 539.519 239.216 550.994 239.216C563.94 239.216 577.181 236.274 588.656 230.389V237.157H632.792V71.5002ZM571.002 189.784C564.823 193.315 558.056 195.081 550.994 195.081C528.926 195.081 511.272 177.426 511.272 155.358C511.272 133.585 528.926 115.636 550.994 115.636C558.644 115.636 566 117.99 572.473 122.109C578.652 126.229 583.654 131.819 586.891 138.587C589.245 143.883 590.422 149.474 590.422 155.653C590.422 162.42 588.656 169.482 585.126 175.367C581.889 181.251 576.887 186.253 571.002 189.784Z" fill="white"></path><path d="M655.895 14.712V237.157H700.325V0L655.895 14.712Z" fill="white"></path><path d="M767.228 221.562L737.509 295.416H784.588L874.036 73.2656H826.664L789.884 166.245L750.162 73.2656H701.612L767.228 221.562Z" fill="white"></path><path d="M866.584 238.922H935.436C965.154 238.922 989.282 214.795 989.282 185.076C989.282 155.358 965.154 130.936 935.436 130.936H923.078C918.958 130.936 915.427 127.7 915.427 123.286C915.427 119.167 918.958 115.636 923.078 115.636H984.574V69.4404H923.078C893.36 69.4404 869.232 93.568 869.232 123.286C869.232 153.004 893.36 177.132 923.078 177.132H935.436C939.555 177.132 943.086 180.663 943.086 185.076C943.086 189.196 939.849 192.727 935.436 192.727H866.584V238.922Z" fill="white"></path><path d="M1050.34 149.179V114.459H1097.12V73.2656H1050.34V20.5967L1006.2 35.3087V149.179C1006.2 161.537 1008.55 173.601 1013.26 184.782C1017.97 195.669 1024.44 205.379 1032.98 213.618C1041.21 221.856 1050.92 228.624 1061.81 233.037C1072.99 237.745 1084.76 240.099 1097.12 240.099V195.963C1071.23 195.963 1050.34 175.072 1050.34 149.179Z" fill="white"></path><defs><clipPath id="clip0_38_2"><rect width="260" height="260" fill="white" transform="translate(0.647339)"></rect></clipPath></defs></svg>